<?xml version="1.0" encoding="utf-8"?>
<!-- Generator: Adobe Illustrator 28.1.0, SVG Export Plug-In . SVG Version: 6.00 Build 0)  -->
<svg version="1.1" id="Layer_1" xmlns="http://www.w3.org/2000/svg" xmlns:xlink="http://www.w3.org/1999/xlink" x="0px" y="0px"
	 viewBox="0 0 512 512" style="enable-background:new 0 0 512 512;" xml:space="preserve">
<style type="text/css">
	.st0{fill:#DCD732;}
	.st1{fill:#A0AF32;}
	.st2{fill:#006941;}
	.st3{fill:#016A42;}
</style>
<path class="st0" d="M0,279c0-14.4,0-28.7,0.4-43.8c1.1-7.4,1.6-14.1,2.7-20.8c3.9-24.4,11.3-47.8,22.2-69.9
	c9.8-20,21.9-38.4,36.7-55.2C76,73.5,91.3,59,108.7,46.8c17.1-12,35.4-21.8,55-29.2c18.8-7.1,38-12.2,57.9-14.6
	c4.1-0.5,8.2-1.3,12.4-2c14.4,0,28.7,0,43.8,0.4c7.4,1.1,14.1,1.6,20.8,2.7c24.4,3.9,47.8,11.3,69.9,22.2
	c20,9.8,38.4,21.9,55.2,36.7c15.9,14.1,30.4,29.4,42.6,46.8c12,17.1,21.8,35.4,29.2,55c7.1,18.8,12.2,38,14.6,57.9
	c0.5,4.1,1.3,8.2,2,12.4c0,0.4,0,0.9-0.3,1.6c-2-1.1-3.8-2.3-5.3-3.8c-29.4-29.3-58.7-58.6-88-87.9c-1.5-1.5-3.3-2.7-5.3-4.4
	c-2.2-0.6-4.2-0.9-6.2-0.9c-29.6-0.1-59.3-0.1-88.9-0.5c-6.9-7.3-13.7-14.3-20.6-21.2c-3.5-3.5-7.2-6.7-11.2-10.3
	c-8.3,0.9-16.3,2-24.3,3.4c-52.6,9.2-105.2,18.5-157.8,27.5c-4.8,0.8-5.3,2.8-5.3,6.8c0.1,50,0.1,100,0.1,149.9
	c0,24.8,0,49.6,0.1,74.5c0,1.8,1.2,3.7,2,5.8c1.5,2,2.8,3.7,4.3,5.2c42.2,42.3,84.5,84.5,126.7,126.8c1.6,1.6,2.7,3.6,4,5.5
	c-0.4,0-0.9,0-1.9-0.4c-7.2-1.1-14-1.6-20.6-2.7c-24.4-3.9-47.8-11.3-69.9-22.2c-20-9.8-38.4-21.9-55.2-36.7
	C72.5,437,58,421.7,45.8,404.3c-12-17.1-21.8-35.4-29.2-55c-7.1-18.8-12.2-38-14.6-57.9C1.5,287.2,0.7,283.1,0,279z"/>
<path class="st1" d="M413.4,140.9c1.7,1.3,3.5,2.5,5,4c29.4,29.3,58.7,58.6,88,87.9c1.5,1.5,3.3,2.7,5.3,4.1
	c0.3,13.7,0.3,27.4,0,41.8c-2.3,13.3-3.7,26-6.4,38.5c-5.6,25.6-15.8,49.4-29.2,71.9c-16.3,27.4-37.4,50.6-62.2,70.3
	c-18.8,14.9-39.5,26.8-61.9,35.6c-19.9,7.8-40.2,13.5-61.5,16c-4.1,0.5-8.2,1.3-12.3,2c-13.7,0-27.4,0-41.5,0
	c-1.8-1.8-2.9-3.9-4.5-5.5c-42.2-42.3-84.5-84.5-126.7-126.8c-1.5-1.5-2.8-3.2-3.9-5.3c51,8.4,101.6,17.2,152.2,26.1
	c10.6,1.8,21.2,3.7,32.5,5.7c0-2.8,0-4.9,0-7c0-95.1,0-190.2,0-285.3c0-2.3,0.2-4.6,0.3-7c3.6,3.3,7.4,6.5,10.9,10
	c6.9,6.9,13.7,13.9,20.1,21.3c-6.4,0.4-12.4,0.6-18.3,0.4c-3.1-0.1-4.1,1.1-4,4.1c0.2,6.6,0.1,13.3,0.2,20.3c0,10.8,0,21.1-0.1,32
	c0,6.7,0,12.9,0,19.6c0,10.8,0,21.1,0,31.8c0,6.8,0,13.1,0,19.9c0,10.8,0,21.1,0,31.8c0,6.7,0,12.9,0.1,19.6c0,10.8,0,21.1,0,32
	c0,8,0,15.4,0,23.1c39.5,0,78.3,0,117.7,0c0-2.5,0-4.6,0-6.7c0-73.3,0-146.5,0-219.8C413.1,145.2,413.3,143.1,413.4,140.9z"/>
<path class="st2" d="M286.3,107.6c0.2,2.6-0.1,5-0.1,7.3c0,95.1,0,190.2,0,285.3c0,2.1,0,4.2,0,7c-11.3-2-21.9-3.8-32.5-5.7
	c-50.6-8.8-101.3-17.7-152.3-26.4c-1.1-1.8-2.3-3.6-2.3-5.4c-0.1-24.8-0.1-49.6-0.1-74.5c0-50,0-100-0.1-149.9c0-4,0.5-5.9,5.3-6.8
	c52.6-9,105.2-18.3,157.8-27.5C269.9,109.6,278,108.5,286.3,107.6 M188.5,236.9c-4.8-8.4-9.6-16.7-14.4-25c-0.7-1.2-1.9-2.8-2.9-2.8
	c-6.4-0.3-12.8-0.1-19.8-0.1c1.2,2.2,1.9,3.7,2.7,5.1c7.2,12.7,14.2,25.6,21.6,38.2c2,3.3,1.7,5.7-0.1,8.9
	c-6.4,10.9-12.4,22-18.6,33c-2.7,4.7-5.3,9.4-8.4,14.9c6.4,0,12-0.2,17.6,0.1c2.9,0.1,4.4-0.9,5.8-3.4c5.4-9.9,11-19.7,16.8-30
	c5.8,10.3,11.3,20.2,17,29.9c0.8,1.4,2.4,3.2,3.6,3.3c6.2,0.3,12.5,0.2,19.4,0.2c-1.1-2.1-1.8-3.6-2.6-5c-8.1-14.3-16-28.8-24.3-43
	c-2-3.4-1.8-5.7,0.1-9c7.6-13.1,14.9-26.3,22.3-39.5c0.6-1,1-2.2,1.6-3.6c-6.1,0-11.6,0.1-17.1-0.1c-2.8-0.1-4.4,0.7-5.8,3.3
	C198.4,220.4,193.7,228.5,188.5,236.9z"/>
<path class="st3" d="M295.3,267c0-6.3,0-12.7,0.5-19.4c9.9-0.4,19.3-0.4,28.9-0.4c0-10.9,0-21.4,0-32c-10,0-19.7,0-29.3,0
	c0-6.2,0-12.4,0.4-19.1c9.9-0.4,19.4-0.4,28.9-0.4c0-11,0-21.5,0-32c-10,0-19.6,0-29.3,0c0-6.6,0-13.3-0.1-19.9
	c-0.1-3,0.9-4.2,4-4.1c6,0.1,11.9,0,18.4-0.1c30.1,0,59.7,0,89.3,0.1c2,0,3.9,0.3,6.2,0.9c0.2,2.5,0,4.7,0,6.8
	c0,73.3,0,146.5,0,219.8c0,2.1,0,4.3,0,6.7c-39.4,0-78.2,0-117.7,0c0-7.7,0-15.1,0.4-23c9.9-0.4,19.4-0.4,28.8-0.4
	c0-11,0-21.5,0-32.1c-10,0-19.7,0-29.3,0c0-6.2,0-12.4,0.4-19.1c9.9-0.4,19.4-0.4,28.9-0.4c0-10.9,0-21.5,0-31.9
	C314.6,267,305,267,295.3,267 M341.9,318.2c-0.6,0.8-1.8,1.6-1.8,2.3c-0.1,9.8-0.1,19.6-0.1,29.7c17.4,0,34.4,0,51.5,0
	c0-10.8,0-21.2,0-32C375.1,318.2,359,318.2,341.9,318.2 M345.7,163.4c-1.8,0-3.6,0-5.4,0c0,11,0,21.5,0,32c17.3,0,34.3,0,51.4,0
	c0-10.7,0-21,0-32C376.6,163.4,361.6,163.4,345.7,163.4 M391.8,282.5c0-5.1,0-10.2,0-15.3c-17.6,0-34.6,0-51.4,0
	c0,10.8,0,21.2,0,31.5c17.2,0,34.1,0,51.4,0C391.8,293.4,391.8,288.5,391.8,282.5 M379.5,215c-13.1,0-26.1,0-39.1,0
	c0,11.1,0,21.5,0,31.9c17.2,0,34.1,0,51.2,0c0-10.7,0-21.1,0-31.9C387.7,215,384.1,215,379.5,215z"/>
</svg>
