<svg version="1.1" id="Layer_1" xmlns="http://www.w3.org/2000/svg" xmlns:xlink="http://www.w3.org/1999/xlink" x="0px" y="0px"
	 width="100%" viewBox="0 0 512 512" enable-background="new 0 0 512 512" xml:space="preserve">
<path fill="#000000" opacity="1.000000" stroke="none" 
	d="
M513.000000,169.000000 
	C513.000000,283.972046 513.000000,398.444092 513.000000,512.958069 
	C342.402954,512.958069 171.805878,512.958069 1.104406,512.958069 
	C1.104406,342.444641 1.104406,171.889221 1.104406,1.166890 
	C171.666534,1.166890 342.333252,1.166890 513.000000,1.166890 
	C513.000000,56.860752 513.000000,112.680374 513.000000,169.000000 
M462.981842,16.023926 
	C323.360382,16.014551 183.738907,16.004416 44.117447,15.997116 
	C31.692699,15.996466 27.090250,20.668318 27.090086,33.280136 
	C27.088156,182.398727 27.088203,331.517334 27.089956,480.635925 
	C27.090107,493.441101 31.679028,498.003540 44.544155,498.003632 
	C182.499680,498.004547 320.455200,498.004822 458.410736,497.997101 
	C460.239685,497.997009 462.068665,497.890533 464.833221,497.978882 
	C466.666199,497.987244 468.499176,498.004822 470.332153,498.002472 
	C482.068542,497.987457 486.907745,493.115051 486.908142,481.242310 
	C486.913116,333.428192 486.776337,185.613800 487.079529,37.800293 
	C487.118195,18.953413 481.309174,14.572492 462.981842,16.023926 
z"/>
<path fill="#FC9637" opacity="1.000000" stroke="none" 
	d="
M463.897614,497.833710 
	C462.068665,497.890533 460.239685,497.997009 458.410736,497.997101 
	C320.455200,498.004822 182.499680,498.004547 44.544155,498.003632 
	C31.679028,498.003540 27.090107,493.441101 27.089956,480.635925 
	C27.088203,331.517334 27.088156,182.398727 27.090086,33.280136 
	C27.090250,20.668318 31.692699,15.996466 44.117447,15.997116 
	C183.738907,16.004416 323.360382,16.014551 463.553406,16.432640 
	C465.417450,22.087624 467.832001,27.332361 467.839142,32.580376 
	C468.042053,181.431732 467.979462,330.283417 468.077972,479.135010 
	C468.082397,485.799042 467.229034,492.031799 463.897614,497.833710 
M62.980167,132.089630 
	C62.975372,138.379837 62.970577,144.670044 62.316204,151.285156 
	C56.228161,152.598221 55.613186,157.008072 55.617447,162.259842 
	C55.691570,253.583923 55.670719,344.908081 55.675171,436.232239 
	C55.675243,437.731415 55.676762,439.234100 55.771557,440.729218 
	C56.478348,451.876617 61.928005,460.227905 71.986374,464.606659 
	C76.974350,466.778107 82.958717,467.450470 88.494156,467.458160 
	C200.815979,467.614075 313.138062,467.575439 425.460114,467.571198 
	C427.125763,467.571136 428.795502,467.578522 430.456390,467.472900 
	C447.213501,466.407318 458.058044,455.081726 458.307251,438.279816 
	C458.420929,430.615570 458.333130,422.948303 458.333160,415.282410 
	C458.333435,302.960358 458.320160,190.638336 458.365570,78.316307 
	C458.368256,71.699982 457.691681,65.352562 453.966766,59.668922 
	C447.357666,49.584293 437.670502,46.356979 426.063538,46.366943 
	C313.408295,46.463657 200.752914,46.424282 88.097572,46.431786 
	C86.266151,46.431908 84.428841,46.457253 82.604240,46.599098 
	C66.935326,47.817158 56.003227,59.011326 55.745071,74.652893 
	C55.483849,90.480362 55.720760,106.315567 55.651325,122.146988 
	C55.629059,127.224335 57.664860,130.429428 62.980167,132.089630 
z"/>
<path fill="#FC850A" opacity="1.000000" stroke="none" 
	d="
M464.365417,497.906311 
	C467.229034,492.031799 468.082397,485.799042 468.077972,479.135010 
	C467.979462,330.283417 468.042053,181.431732 467.839142,32.580376 
	C467.832001,27.332361 465.417450,22.087624 464.010712,16.503864 
	C481.309174,14.572492 487.118195,18.953413 487.079529,37.800293 
	C486.776337,185.613800 486.913116,333.428192 486.908142,481.242310 
	C486.907745,493.115051 482.068542,497.987457 470.332153,498.002472 
	C468.499176,498.004822 466.666199,497.987244 464.365417,497.906311 
z"/>
<path fill="#96450F" opacity="1.000000" stroke="none" 
	d="
M62.965782,150.960251 
	C62.970577,144.670044 62.975372,138.379837 63.318092,131.572296 
	C69.349251,130.233109 70.756798,126.304115 70.752861,121.315971 
	C70.742737,108.487083 71.214256,95.637566 70.643684,82.834152 
	C69.800774,63.919430 76.461594,61.289089 92.177765,61.308537 
	C198.807358,61.440498 305.437195,61.373375 412.066956,61.398788 
	C415.055176,61.399502 418.043365,61.716064 421.093170,62.256805 
	C422.433685,69.577896 424.813110,76.525291 424.827240,83.477493 
	C425.058624,197.409821 424.969421,311.342773 425.033081,425.275543 
	C425.038208,434.462830 425.212433,443.587799 420.617798,452.196869 
	C417.544891,452.396637 414.883606,452.607880 412.222290,452.608307 
	C305.411987,452.624939 198.601685,452.624878 91.791389,452.609253 
	C88.962067,452.608826 86.118752,452.555542 83.306137,452.280060 
	C75.480431,451.513702 71.079208,446.718842 70.787743,438.769653 
	C70.708427,436.606140 70.753845,434.437744 70.753815,432.271606 
	C70.752426,342.457642 70.754646,252.643692 70.748383,162.829727 
	C70.747818,154.688019 69.605148,152.984009 62.965782,150.960251 
M391.657776,296.855438 
	C396.473297,295.660400 398.273621,292.486389 398.242676,287.651337 
	C398.132782,270.485992 398.324158,253.318222 398.151245,236.153870 
	C397.992950,220.444946 385.789581,208.332352 370.615387,208.457169 
	C355.366791,208.582596 343.405060,220.692108 343.137238,236.396790 
	C343.017883,243.394562 343.107239,250.395966 343.107635,257.395721 
	C343.109467,289.561279 343.013367,321.727264 343.159393,353.892181 
	C343.230682,369.596680 355.394989,381.841827 370.501892,381.933899 
	C385.862762,382.027527 397.907990,370.107300 398.162140,354.363281 
	C398.315460,344.866028 398.100800,335.362946 398.242584,325.865356 
	C398.322083,320.539124 396.212524,317.257690 390.878693,315.605499 
	C390.904907,309.423767 390.931091,303.242004 391.657776,296.855438 
M269.085876,202.368500 
	C262.918793,186.014404 256.881134,169.609955 250.544388,153.321854 
	C245.313416,139.875961 233.814911,131.990280 220.256638,132.056641 
	C206.861954,132.122223 195.456482,139.974731 190.395966,153.219269 
	C166.095947,216.817764 141.863022,280.442017 117.724724,344.102051 
	C112.117409,358.890228 118.994537,374.383606 133.209167,379.986938 
	C147.584915,385.653717 163.124054,378.683990 169.123123,363.733154 
	C172.532028,355.237518 175.816666,346.686737 178.900391,338.068878 
	C179.955902,335.119110 181.389420,333.953949 184.624023,333.971893 
	C208.278412,334.102936 231.934113,334.095856 255.588654,333.978729 
	C258.726074,333.963196 260.314575,334.867126 261.387848,337.941345 
	C264.459381,346.739288 267.748627,355.469604 271.236694,364.111755 
	C276.322449,376.712311 289.151825,383.927979 301.648254,381.496063 
	C319.344086,378.052307 328.868958,361.083252 322.381989,343.745361 
	C304.824066,296.817963 287.044830,249.973343 269.085876,202.368500 
M359.130219,192.573608 
	C360.204071,193.023712 361.254730,193.542847 362.355408,193.913208 
	C373.047119,197.510620 384.528961,194.003799 391.441284,185.055466 
	C398.118073,176.412079 398.587891,164.308624 392.603760,155.107712 
	C386.607422,145.888062 375.545502,141.449234 364.785126,143.944946 
	C354.735779,146.275726 346.595520,154.928940 345.076538,164.895523 
	C343.348206,176.235992 348.042572,185.804443 359.130219,192.573608 
z"/>
<path fill="#060301" opacity="1.000000" stroke="none" 
	d="
M421.031555,61.885345 
	C418.043365,61.716064 415.055176,61.399502 412.066956,61.398788 
	C305.437195,61.373375 198.807358,61.440498 92.177765,61.308537 
	C76.461594,61.289089 69.800774,63.919430 70.643684,82.834152 
	C71.214256,95.637566 70.742737,108.487083 70.752861,121.315971 
	C70.756798,126.304115 69.349251,130.233109 63.278130,131.116486 
	C57.664860,130.429428 55.629059,127.224335 55.651325,122.146988 
	C55.720760,106.315567 55.483849,90.480362 55.745071,74.652893 
	C56.003227,59.011326 66.935326,47.817158 82.604240,46.599098 
	C84.428841,46.457253 86.266151,46.431908 88.097572,46.431786 
	C200.752914,46.424282 313.408295,46.463657 426.063538,46.366943 
	C437.670502,46.356979 447.357666,49.584293 453.966766,59.668922 
	C457.691681,65.352562 458.368256,71.699982 458.365570,78.316307 
	C458.320160,190.638336 458.333435,302.960358 458.333160,415.282410 
	C458.333130,422.948303 458.420929,430.615570 458.307251,438.279816 
	C458.058044,455.081726 447.213501,466.407318 430.456390,467.472900 
	C428.795502,467.578522 427.125763,467.571136 425.460114,467.571198 
	C313.138062,467.575439 200.815979,467.614075 88.494156,467.458160 
	C82.958717,467.450470 76.974350,466.778107 71.986374,464.606659 
	C61.928005,460.227905 56.478348,451.876617 55.771557,440.729218 
	C55.676762,439.234100 55.675243,437.731415 55.675171,436.232239 
	C55.670719,344.908081 55.691570,253.583923 55.617447,162.259842 
	C55.613186,157.008072 56.228161,152.598221 62.640991,151.122711 
	C69.605148,152.984009 70.747818,154.688019 70.748383,162.829727 
	C70.754646,252.643692 70.752426,342.457642 70.753815,432.271606 
	C70.753845,434.437744 70.708427,436.606140 70.787743,438.769653 
	C71.079208,446.718842 75.480431,451.513702 83.306137,452.280060 
	C86.118752,452.555542 88.962067,452.608826 91.791389,452.609253 
	C198.601685,452.624878 305.411987,452.624939 412.222290,452.608307 
	C414.883606,452.607880 417.544891,452.396637 421.075104,452.273438 
	C424.609741,452.275513 427.280334,452.397736 429.940247,452.279785 
	C438.016998,451.921509 442.884491,447.024963 443.185883,439.020599 
	C443.267334,436.856873 443.221741,434.688110 443.221771,432.521637 
	C443.222992,315.862610 443.029694,199.202972 443.413361,82.545227 
	C443.477142,63.149071 436.345825,60.436531 421.031555,61.885345 
z"/>
<path fill="#030200" opacity="1.000000" stroke="none" 
	d="
M269.219604,202.732208 
	C287.044830,249.973343 304.824066,296.817963 322.381989,343.745361 
	C328.868958,361.083252 319.344086,378.052307 301.648254,381.496063 
	C289.151825,383.927979 276.322449,376.712311 271.236694,364.111755 
	C267.748627,355.469604 264.459381,346.739288 261.387848,337.941345 
	C260.314575,334.867126 258.726074,333.963196 255.588654,333.978729 
	C231.934113,334.095856 208.278412,334.102936 184.624023,333.971893 
	C181.389420,333.953949 179.955902,335.119110 178.900391,338.068878 
	C175.816666,346.686737 172.532028,355.237518 169.123123,363.733154 
	C163.124054,378.683990 147.584915,385.653717 133.209167,379.986938 
	C118.994537,374.383606 112.117409,358.890228 117.724724,344.102051 
	C141.863022,280.442017 166.095947,216.817764 190.395966,153.219269 
	C195.456482,139.974731 206.861954,132.122223 220.256638,132.056641 
	C233.814911,131.990280 245.313416,139.875961 250.544388,153.321854 
	C256.881134,169.609955 262.918793,186.014404 269.219604,202.732208 
M295.542358,366.820831 
	C306.615387,366.725189 312.026367,358.824341 308.044586,348.199677 
	C294.990204,313.366486 281.840118,278.569122 268.709503,243.764542 
	C258.158569,215.797775 247.594025,187.836151 237.010773,159.881607 
	C233.687347,151.103104 228.546860,147.338013 219.227097,147.145706 
	C211.439545,148.017288 206.689301,152.433670 203.959625,159.645050 
	C192.189224,190.740677 180.299561,221.791153 168.457993,252.859848 
	C156.379105,284.551178 144.292450,316.239594 132.240158,347.941040 
	C129.567810,354.970215 130.756149,360.435364 135.604126,364.208710 
	C142.433044,369.523895 151.660339,366.828339 155.124969,358.211182 
	C159.403397,347.570038 163.462158,336.836456 167.393982,326.061859 
	C169.172623,321.187744 172.141403,318.982605 177.455994,319.008667 
	C205.944290,319.148468 234.433975,319.147095 262.922302,319.009949 
	C268.239960,318.984344 271.216461,321.210846 272.978790,326.082642 
	C276.823822,336.711914 280.929291,347.246826 284.908630,357.827728 
	C286.674347,362.522736 289.677460,365.765900 295.542358,366.820831 
z"/>
<path fill="#7B3608" opacity="1.000000" stroke="none" 
	d="
M421.093170,62.256805 
	C436.345825,60.436531 443.477142,63.149071 443.413361,82.545227 
	C443.029694,199.202972 443.222992,315.862610 443.221771,432.521637 
	C443.221741,434.688110 443.267334,436.856873 443.185883,439.020599 
	C442.884491,447.024963 438.016998,451.921509 429.940247,452.279785 
	C427.280334,452.397736 424.609741,452.275513 421.486755,452.186584 
	C425.212433,443.587799 425.038208,434.462830 425.033081,425.275543 
	C424.969421,311.342773 425.058624,197.409821 424.827240,83.477493 
	C424.813110,76.525291 422.433685,69.577896 421.093170,62.256805 
z"/>
<path fill="#030200" opacity="1.000000" stroke="none" 
	d="
M390.773407,316.467621 
	C396.212524,317.257690 398.322083,320.539124 398.242584,325.865356 
	C398.100800,335.362946 398.315460,344.866028 398.162140,354.363281 
	C397.907990,370.107300 385.862762,382.027527 370.501892,381.933899 
	C355.394989,381.841827 343.230682,369.596680 343.159393,353.892181 
	C343.013367,321.727264 343.109467,289.561279 343.107635,257.395721 
	C343.107239,250.395966 343.017883,243.394562 343.137238,236.396790 
	C343.405060,220.692108 355.366791,208.582596 370.615387,208.457169 
	C385.789581,208.332352 397.992950,220.444946 398.151245,236.153870 
	C398.324158,253.318222 398.132782,270.485992 398.242676,287.651337 
	C398.273621,292.486389 396.473297,295.660400 390.942383,296.882751 
	C384.729065,295.965942 383.218475,292.160492 383.220032,287.219360 
	C383.225403,270.312408 383.325867,253.404266 383.155304,236.498947 
	C383.064819,227.528473 376.987671,222.749268 367.647888,224.074280 
	C360.918549,226.206421 358.157135,230.880157 358.134552,237.364014 
	C358.094513,248.839462 358.120880,260.315155 358.120880,271.790741 
	C358.120941,298.567108 358.103180,325.343506 358.133545,352.119843 
	C358.142853,360.309875 360.991608,364.327545 368.211731,366.438049 
	C377.631104,367.242798 383.074188,362.368408 383.189850,353.278656 
	C383.306274,344.132050 383.257935,334.982727 383.209808,325.834930 
	C383.182251,320.598297 385.356720,317.252655 390.773407,316.467621 
z"/>
<path fill="#030100" opacity="1.000000" stroke="none" 
	d="
M358.800598,192.385406 
	C348.042572,185.804443 343.348206,176.235992 345.076538,164.895523 
	C346.595520,154.928940 354.735779,146.275726 364.785126,143.944946 
	C375.545502,141.449234 386.607422,145.888062 392.603760,155.107712 
	C398.587891,164.308624 398.118073,176.412079 391.441284,185.055466 
	C384.528961,194.003799 373.047119,197.510620 362.355408,193.913208 
	C361.254730,193.542847 360.204071,193.023712 358.800598,192.385406 
M368.793793,180.038986 
	C374.146515,180.791733 378.230133,178.832306 380.654938,174.024170 
	C382.692322,169.984314 382.224213,165.907516 379.299042,162.468246 
	C376.356598,159.008514 372.689178,157.083603 367.247589,158.928574 
	C362.110779,160.779785 359.620819,164.519684 359.891815,169.887817 
	C360.152344,175.047806 362.887177,178.432419 368.793793,180.038986 
z"/>
<path fill="#FD7701" opacity="1.000000" stroke="none" 
	d="
M390.826050,316.036560 
	C385.356720,317.252655 383.182251,320.598297 383.209808,325.834930 
	C383.257935,334.982727 383.306274,344.132050 383.189850,353.278656 
	C383.074188,362.368408 377.631104,367.242798 368.396179,366.118469 
	C369.515045,361.022125 371.800049,356.475677 371.835907,351.911591 
	C372.128510,314.692780 372.161072,277.469208 371.823273,240.251175 
	C371.774261,234.855148 369.337891,229.480789 368.006287,224.096390 
	C376.987671,222.749268 383.064819,227.528473 383.155304,236.498947 
	C383.325867,253.404266 383.225403,270.312408 383.220032,287.219360 
	C383.218475,292.160492 384.729065,295.965942 390.592163,296.985168 
	C390.931091,303.242004 390.904907,309.423767 390.826050,316.036560 
z"/>
<path fill="#FC850A" opacity="1.000000" stroke="none" 
	d="
M294.864868,366.527466 
	C289.677460,365.765900 286.674347,362.522736 284.908630,357.827728 
	C280.929291,347.246826 276.823822,336.711914 272.978790,326.082642 
	C271.216461,321.210846 268.239960,318.984344 262.922302,319.009949 
	C234.433975,319.147095 205.944290,319.148468 177.455994,319.008667 
	C172.141403,318.982605 169.172623,321.187744 167.393982,326.061859 
	C163.462158,336.836456 159.403397,347.570038 155.124969,358.211182 
	C151.660339,366.828339 142.433044,369.523895 135.604126,364.208710 
	C130.756149,360.435364 129.567810,354.970215 132.240158,347.941040 
	C144.292450,316.239594 156.379105,284.551178 168.457993,252.859848 
	C180.299561,221.791153 192.189224,190.740677 203.959625,159.645050 
	C206.689301,152.433670 211.439545,148.017288 219.697861,147.525177 
	C221.534866,150.356689 223.228958,152.683990 224.216599,155.280060 
	C233.981003,180.946503 243.590317,206.671890 253.317932,232.352402 
	C266.759613,267.837952 280.106628,303.360931 293.850494,338.729401 
	C297.490173,348.095673 299.796448,357.061005 294.864868,366.527466 
M228.953690,209.586319 
	C227.362488,205.366379 226.149323,200.717712 220.263000,200.817474 
	C214.411636,200.916641 213.358871,205.621796 211.759003,209.825912 
	C202.659164,233.738495 193.510712,257.632599 184.423248,281.549866 
	C181.325562,289.702728 184.357742,293.983002 193.179520,293.994415 
	C211.327866,294.017883 229.476318,294.026459 247.624634,293.990326 
	C256.047394,293.973572 259.076111,289.610413 256.095459,281.672791 
	C247.159088,257.874908 238.149109,234.104691 228.953690,209.586319 
z"/>
<path fill="#FB7601" opacity="1.000000" stroke="none" 
	d="
M295.203613,366.674133 
	C299.796448,357.061005 297.490173,348.095673 293.850494,338.729401 
	C280.106628,303.360931 266.759613,267.837952 253.317932,232.352402 
	C243.590317,206.671890 233.981003,180.946503 224.216599,155.280060 
	C223.228958,152.683990 221.534866,150.356689 220.072937,147.583176 
	C228.546860,147.338013 233.687347,151.103104 237.010773,159.881607 
	C247.594025,187.836151 258.158569,215.797775 268.709503,243.764542 
	C281.840118,278.569122 294.990204,313.366486 308.044586,348.199677 
	C312.026367,358.824341 306.615387,366.725189 295.203613,366.674133 
z"/>
<path fill="#FA840A" opacity="1.000000" stroke="none" 
	d="
M367.647888,224.074280 
	C369.337891,229.480789 371.774261,234.855148 371.823273,240.251175 
	C372.161072,277.469208 372.128510,314.692780 371.835907,351.911591 
	C371.800049,356.475677 369.515045,361.022125 368.087860,365.896332 
	C360.991608,364.327545 358.142853,360.309875 358.133545,352.119843 
	C358.103180,325.343506 358.120941,298.567108 358.120880,271.790741 
	C358.120880,260.315155 358.094513,248.839462 358.134552,237.364014 
	C358.157135,230.880157 360.918549,226.206421 367.647888,224.074280 
z"/>
<path fill="#F77401" opacity="1.000000" stroke="none" 
	d="
M367.972931,158.957184 
	C372.689178,157.083603 376.356598,159.008514 379.299042,162.468246 
	C382.224213,165.907516 382.692322,169.984314 380.654938,174.024170 
	C378.230133,178.832306 374.146515,180.791733 368.422668,179.526184 
	C370.962860,172.316452 370.462708,165.632919 367.972931,158.957184 
z"/>
<path fill="#FA840A" opacity="1.000000" stroke="none" 
	d="
M367.610260,158.942871 
	C370.462708,165.632919 370.962860,172.316452 368.012512,179.391876 
	C362.887177,178.432419 360.152344,175.047806 359.891815,169.887817 
	C359.620819,164.519684 362.110779,160.779785 367.610260,158.942871 
z"/>
<path fill="#030100" opacity="1.000000" stroke="none" 
	d="
M229.060776,209.955002 
	C238.149109,234.104691 247.159088,257.874908 256.095459,281.672791 
	C259.076111,289.610413 256.047394,293.973572 247.624634,293.990326 
	C229.476318,294.026459 211.327866,294.017883 193.179520,293.994415 
	C184.357742,293.983002 181.325562,289.702728 184.423248,281.549866 
	C193.510712,257.632599 202.659164,233.738495 211.759003,209.825912 
	C213.358871,205.621796 214.411636,200.916641 220.263000,200.817474 
	C226.149323,200.717712 227.362488,205.366379 229.060776,209.955002 
M218.755997,233.609467 
	C213.093414,248.478058 207.430817,263.346649 201.629654,278.579102 
	C214.393356,278.579102 226.371124,278.579102 238.901535,278.579102 
	C233.023773,262.947693 227.356750,247.863678 221.667648,232.788010 
	C221.401657,232.083145 220.938980,231.452515 220.528366,230.716431 
	C220.079895,231.142166 219.783661,231.331116 219.619461,231.600540 
	C219.362473,232.022202 219.194763,232.498306 218.755997,233.609467 
z"/>
<path fill="#94440F" opacity="1.000000" stroke="none" 
	d="
M218.872620,233.280396 
	C219.194763,232.498306 219.362473,232.022202 219.619461,231.600540 
	C219.783661,231.331116 220.079895,231.142166 220.528366,230.716431 
	C220.938980,231.452515 221.401657,232.083145 221.667648,232.788010 
	C227.356750,247.863678 233.023773,262.947693 238.901535,278.579102 
	C226.371124,278.579102 214.393356,278.579102 201.629654,278.579102 
	C207.430817,263.346649 213.093414,248.478058 218.872620,233.280396 
z"/>
</svg>