<svg version="1.1" id="Layer_1" xmlns="http://www.w3.org/2000/svg" xmlns:xlink="http://www.w3.org/1999/xlink" x="0px" y="0px"
	 width="100%" viewBox="0 0 512 512" enable-background="new 0 0 512 512" xml:space="preserve">
<path fill="#000000" opacity="1.000000" stroke="none" 
	d="
M513.000000,169.000000 
	C513.000000,283.972046 513.000000,398.444092 513.000000,512.958069 
	C342.402954,512.958069 171.805878,512.958069 1.104406,512.958069 
	C1.104406,342.444641 1.104406,171.889221 1.104406,1.166890 
	C171.666534,1.166890 342.333252,1.166890 513.000000,1.166890 
	C513.000000,56.860752 513.000000,112.680374 513.000000,169.000000 
M463.035156,16.058805 
	C323.416016,16.049189 183.796860,16.038963 44.177708,16.030998 
	C31.749075,16.030291 27.119640,20.710922 27.119453,33.287834 
	C27.117237,182.403778 27.117308,331.519745 27.119291,480.635681 
	C27.119463,493.413391 31.722973,497.969543 44.611649,497.969604 
	C182.564728,497.970306 320.517792,497.970795 458.470886,497.962402 
	C460.299072,497.962280 462.127258,497.846436 464.876587,497.945221 
	C465.542786,497.953308 466.211914,497.923615 466.874756,497.975067 
	C483.775299,499.287567 487.036438,491.016327 487.017731,478.148071 
	C486.804047,331.234314 486.756226,184.319870 487.044037,37.406364 
	C487.079285,19.428913 481.473480,14.518202 463.035156,16.058805 
z"/>
<path fill="#FB79B4" opacity="1.000000" stroke="none" 
	d="
M463.955444,497.784607 
	C462.127258,497.846436 460.299072,497.962280 458.470886,497.962402 
	C320.517792,497.970795 182.564728,497.970306 44.611649,497.969604 
	C31.722973,497.969543 27.119463,493.413391 27.119291,480.635681 
	C27.117308,331.519745 27.117237,182.403778 27.119453,33.287834 
	C27.119640,20.710922 31.749075,16.030291 44.177708,16.030998 
	C183.796860,16.038963 323.416016,16.049189 463.583984,16.477512 
	C465.423462,21.974438 467.834900,27.051138 467.841736,32.131088 
	C468.042999,181.111496 467.981110,330.092224 468.082825,479.072815 
	C468.087402,485.735321 467.235657,491.965118 463.955444,497.784607 
M349.222595,53.732338 
	C348.386719,47.812721 346.542145,46.432667 339.074280,46.431568 
	C254.908661,46.419182 170.743027,46.422009 86.577400,46.436169 
	C84.747879,46.436478 82.910545,46.542526 81.090164,46.729137 
	C69.289436,47.938843 59.817513,55.770332 56.782310,67.293076 
	C55.865570,70.773361 55.704716,74.531563 55.703114,78.162682 
	C55.650517,197.327850 55.659069,316.493042 55.664421,435.658234 
	C55.664501,437.490570 55.679836,439.326324 55.786720,441.154694 
	C56.260406,449.257690 59.827305,455.790436 65.956062,461.004028 
	C72.310760,466.409760 79.864258,467.609772 87.907074,467.606598 
	C200.572327,467.562256 313.237610,467.576752 425.902863,467.573364 
	C427.402191,467.573303 428.904968,467.582550 430.400360,467.492065 
	C447.110962,466.481171 458.279785,455.101440 458.291016,438.348206 
	C458.371918,317.516449 458.368591,196.684555 458.296539,75.852768 
	C458.286346,58.795242 447.116180,47.050781 430.104980,46.581020 
	C412.951569,46.107334 395.775696,46.435810 378.609650,46.442577 
	C373.588470,46.444557 370.365601,48.679012 368.824799,53.948326 
	C362.491730,54.025047 356.158661,54.101772 349.222595,53.732338 
z"/>
<path fill="#FB5BA5" opacity="1.000000" stroke="none" 
	d="
M464.416016,497.864929 
	C467.235657,491.965118 468.087402,485.735321 468.082825,479.072815 
	C467.981110,330.092224 468.042999,181.111496 467.841736,32.131088 
	C467.834900,27.051138 465.423462,21.974438 464.043976,16.555809 
	C481.473480,14.518202 487.079285,19.428913 487.044037,37.406364 
	C486.756226,184.319870 486.804047,331.234314 487.017731,478.148071 
	C487.036438,491.016327 483.775299,499.287567 466.874756,497.975067 
	C466.211914,497.923615 465.542786,497.953308 464.416016,497.864929 
z"/>
<path fill="#A21259" opacity="1.000000" stroke="none" 
	d="
M349.825592,54.178497 
	C356.158661,54.101772 362.491730,54.025047 369.349121,54.314125 
	C370.738281,60.374771 374.754578,61.646042 379.671478,61.678288 
	C393.449585,61.768654 407.227631,61.868282 421.064331,62.329781 
	C424.529114,69.058403 425.060150,75.882545 425.054230,82.994278 
	C424.958801,197.409668 424.971527,311.825195 425.016815,426.240662 
	C425.020294,435.076782 425.407990,443.906281 420.540771,452.113495 
	C418.913330,452.239929 417.748322,452.312988 416.583313,452.313049 
	C306.615356,452.318481 196.647385,452.325226 86.679413,452.308167 
	C75.269661,452.306396 70.798782,447.712128 70.797783,436.084503 
	C70.787506,316.952545 70.789055,197.820587 70.793907,78.688629 
	C70.794434,65.825417 74.958618,61.685894 87.898048,61.683506 
	C134.551117,61.674881 181.204193,61.680019 227.857269,61.679729 
	C264.846497,61.679501 301.835724,61.687183 338.824951,61.671516 
	C346.176605,61.668404 347.981934,60.396034 349.825592,54.178497 
M141.013382,272.025238 
	C141.022385,278.314545 141.031403,284.603882 140.316620,291.049957 
	C135.105438,292.089630 133.375427,295.653992 133.379608,300.531036 
	C133.394791,318.194611 133.337784,335.858490 133.444977,353.521423 
	C133.461960,356.319550 133.877472,359.199310 134.632660,361.894562 
	C138.286148,374.933716 151.259048,383.519470 164.411209,381.789795 
	C178.574997,379.927063 188.712692,368.387787 188.736603,353.352875 
	C188.838669,289.197479 188.836273,225.041779 188.742966,160.886368 
	C188.719254,144.593704 176.965332,132.327454 161.666580,132.053864 
	C146.012924,131.773956 133.624161,143.700302 133.482483,160.213150 
	C133.192261,194.038116 133.393036,227.867279 133.383636,261.694702 
	C133.382187,266.924988 135.671768,270.257477 141.013382,272.025238 
M380.601501,184.911896 
	C380.284271,165.063889 362.145142,153.176285 345.318878,157.978455 
	C333.361176,161.391159 325.435577,171.994492 325.258759,185.327988 
	C325.117798,195.956131 325.230316,206.587662 325.230316,217.702271 
	C322.273132,216.933304 319.894318,216.326996 317.522034,215.696106 
	C255.591003,199.226273 198.306717,255.705475 213.932373,317.831696 
	C226.543182,367.971222 280.261414,395.100067 328.242889,375.416992 
	C331.608032,374.036530 333.635223,374.645081 336.708984,376.355042 
	C341.370331,378.948151 346.724640,381.356201 351.930695,381.713562 
	C368.475128,382.849335 380.586975,369.855530 380.603821,351.715057 
	C380.655182,296.421753 380.618469,241.128342 380.601501,184.911896 
z"/>
<path fill="#070205" opacity="1.000000" stroke="none" 
	d="
M349.524109,53.955414 
	C347.981934,60.396034 346.176605,61.668404 338.824951,61.671516 
	C301.835724,61.687183 264.846497,61.679501 227.857269,61.679729 
	C181.204193,61.680019 134.551117,61.674881 87.898048,61.683506 
	C74.958618,61.685894 70.794434,65.825417 70.793907,78.688629 
	C70.789055,197.820587 70.787506,316.952545 70.797783,436.084503 
	C70.798782,447.712128 75.269661,452.306396 86.679413,452.308167 
	C196.647385,452.325226 306.615356,452.318481 416.583313,452.313049 
	C417.748322,452.312988 418.913330,452.239929 420.998291,452.195282 
	C425.081604,452.174957 428.261169,452.359589 431.404846,452.103699 
	C437.739563,451.587921 442.485962,446.774719 443.048035,440.433044 
	C443.253296,438.116974 443.171112,435.772858 443.171204,433.441559 
	C443.175934,316.502106 442.988098,199.562057 443.358765,82.623787 
	C443.420959,63.003128 436.147583,60.516495 421.005707,61.964256 
	C407.227631,61.868282 393.449585,61.768654 379.671478,61.678288 
	C374.754578,61.646042 370.738281,60.374771 369.800537,54.304890 
	C370.365601,48.679012 373.588470,46.444557 378.609650,46.442577 
	C395.775696,46.435810 412.951569,46.107334 430.104980,46.581020 
	C447.116180,47.050781 458.286346,58.795242 458.296539,75.852768 
	C458.368591,196.684555 458.371918,317.516449 458.291016,438.348206 
	C458.279785,455.101440 447.110962,466.481171 430.400360,467.492065 
	C428.904968,467.582550 427.402191,467.573303 425.902863,467.573364 
	C313.237610,467.576752 200.572327,467.562256 87.907074,467.606598 
	C79.864258,467.609772 72.310760,466.409760 65.956062,461.004028 
	C59.827305,455.790436 56.260406,449.257690 55.786720,441.154694 
	C55.679836,439.326324 55.664501,437.490570 55.664421,435.658234 
	C55.659069,316.493042 55.650517,197.327850 55.703114,78.162682 
	C55.704716,74.531563 55.865570,70.773361 56.782310,67.293076 
	C59.817513,55.770332 69.289436,47.938843 81.090164,46.729137 
	C82.910545,46.542526 84.747879,46.436478 86.577400,46.436169 
	C170.743027,46.422009 254.908661,46.419182 339.074280,46.431568 
	C346.542145,46.432667 348.386719,47.812721 349.524109,53.955414 
z"/>
<path fill="#040103" opacity="1.000000" stroke="none" 
	d="
M380.608765,185.373444 
	C380.618469,241.128342 380.655182,296.421753 380.603821,351.715057 
	C380.586975,369.855530 368.475128,382.849335 351.930695,381.713562 
	C346.724640,381.356201 341.370331,378.948151 336.708984,376.355042 
	C333.635223,374.645081 331.608032,374.036530 328.242889,375.416992 
	C280.261414,395.100067 226.543182,367.971222 213.932373,317.831696 
	C198.306717,255.705475 255.591003,199.226273 317.522034,215.696106 
	C319.894318,216.326996 322.273132,216.933304 325.230316,217.702271 
	C325.230316,206.587662 325.117798,195.956131 325.258759,185.327988 
	C325.435577,171.994492 333.361176,161.391159 345.318878,157.978455 
	C362.145142,153.176285 380.284271,165.063889 380.608765,185.373444 
M351.503296,366.798126 
	C360.886230,366.624512 365.389038,361.905243 365.397156,351.906799 
	C365.434570,305.816711 365.416656,259.726593 365.414001,213.636475 
	C365.413422,203.986023 365.594818,194.329895 365.322021,184.686844 
	C365.081238,176.173630 359.398712,171.558487 350.029602,172.336716 
	C343.105377,174.995926 340.576752,178.467712 340.353241,185.771606 
	C340.271790,188.432755 340.334534,191.098373 340.333771,193.761948 
	C340.330475,205.415100 340.437836,217.069687 340.285187,228.720886 
	C340.189392,236.038757 335.089111,239.032013 328.399750,235.966827 
	C327.493866,235.551743 326.624939,235.054260 325.711945,234.656784 
	C299.219696,223.123383 274.060272,225.619781 251.825211,244.042328 
	C229.590683,262.464447 221.829498,286.849304 228.907303,314.882263 
	C239.954712,358.637573 288.861633,379.705353 328.852539,358.521912 
	C335.994263,354.738892 337.673340,355.350128 342.768066,361.306976 
	C344.756958,363.632324 348.116547,364.785370 351.503296,366.798126 
z"/>
<path fill="#050203" opacity="1.000000" stroke="none" 
	d="
M141.038513,271.103455 
	C135.671768,270.257477 133.382187,266.924988 133.383636,261.694702 
	C133.393036,227.867279 133.192261,194.038116 133.482483,160.213150 
	C133.624161,143.700302 146.012924,131.773956 161.666580,132.053864 
	C176.965332,132.327454 188.719254,144.593704 188.742966,160.886368 
	C188.836273,225.041779 188.838669,289.197479 188.736603,353.352875 
	C188.712692,368.387787 178.574997,379.927063 164.411209,381.789795 
	C151.259048,383.519470 138.286148,374.933716 134.632660,361.894562 
	C133.877472,359.199310 133.461960,356.319550 133.444977,353.521423 
	C133.337784,335.858490 133.394791,318.194611 133.379608,300.531036 
	C133.375427,295.653992 135.105438,292.089630 141.034576,291.060608 
	C147.227570,292.178772 148.642365,295.979492 148.622269,300.998688 
	C148.553207,318.248138 148.544647,335.498352 148.627182,352.747711 
	C148.665466,360.745331 151.674469,364.593811 159.182831,366.579529 
	C168.806396,366.830963 173.659225,361.930145 173.665344,352.068329 
	C173.704681,288.768463 173.687943,225.468597 173.671783,162.168732 
	C173.671402,160.677414 173.591370,159.163071 173.329010,157.698792 
	C172.031815,150.458694 166.322708,146.503967 158.470123,147.605377 
	C151.002380,150.152100 148.620819,153.653641 148.612427,162.031372 
	C148.579468,194.923264 148.609161,227.815216 148.585114,260.707123 
	C148.580124,267.536346 147.285522,269.234863 141.038513,271.103455 
z"/>
<path fill="#890A4D" opacity="1.000000" stroke="none" 
	d="
M421.064331,62.329781 
	C436.147583,60.516495 443.420959,63.003128 443.358765,82.623787 
	C442.988098,199.562057 443.175934,316.502106 443.171204,433.441559 
	C443.171112,435.772858 443.253296,438.116974 443.048035,440.433044 
	C442.485962,446.774719 437.739563,451.587921 431.404846,452.103699 
	C428.261169,452.359589 425.081604,452.174957 421.460754,452.107849 
	C425.407990,443.906281 425.020294,435.076782 425.016815,426.240662 
	C424.971527,311.825195 424.958801,197.409668 425.054230,82.994278 
	C425.060150,75.882545 424.529114,69.058403 421.064331,62.329781 
z"/>
<path fill="#FD7AB6" opacity="1.000000" stroke="none" 
	d="
M158.854553,366.403656 
	C151.674469,364.593811 148.665466,360.745331 148.627182,352.747711 
	C148.544647,335.498352 148.553207,318.248138 148.622269,300.998688 
	C148.642365,295.979492 147.227570,292.178772 141.396484,290.982239 
	C141.031403,284.603882 141.022385,278.314545 141.025940,271.564331 
	C147.285522,269.234863 148.580124,267.536346 148.585114,260.707123 
	C148.609161,227.815216 148.579468,194.923264 148.612427,162.031372 
	C148.620819,153.653641 151.002380,150.152100 158.623947,147.970261 
	C160.109253,152.467224 161.892151,156.615387 161.903671,160.768448 
	C162.080795,224.682709 162.093140,288.597809 161.890915,352.511932 
	C161.876266,357.145660 159.912231,361.773224 158.854553,366.403656 
z"/>
<path fill="#FC79B4" opacity="1.000000" stroke="none" 
	d="
M350.851837,366.472351 
	C348.116547,364.785370 344.756958,363.632324 342.768066,361.306976 
	C337.673340,355.350128 335.994263,354.738892 328.852539,358.521912 
	C288.861633,379.705353 239.954712,358.637573 228.907303,314.882263 
	C221.829498,286.849304 229.590683,262.464447 251.825211,244.042328 
	C274.060272,225.619781 299.219696,223.123383 325.711945,234.656784 
	C326.624939,235.054260 327.493866,235.551743 328.399750,235.966827 
	C335.089111,239.032013 340.189392,236.038757 340.285187,228.720886 
	C340.437836,217.069687 340.330475,205.415100 340.333771,193.761948 
	C340.334534,191.098373 340.271790,188.432755 340.353241,185.771606 
	C340.576752,178.467712 343.105377,174.995926 350.558960,172.718979 
	C352.061523,177.579453 353.865112,182.054642 353.881378,186.536331 
	C354.077301,240.399109 353.975861,294.262878 354.052399,348.126251 
	C354.061432,354.479858 354.140717,360.741882 350.851837,366.472351 
M323.160736,262.294525 
	C312.143585,254.088516 299.910645,251.238846 286.428253,254.022415 
	C263.563660,258.743011 248.188873,281.665771 252.170807,305.056427 
	C256.152466,328.445496 278.843933,344.957092 302.177917,341.236786 
	C320.697021,338.284088 333.261200,327.635010 338.425629,309.807037 
	C343.775330,291.339539 338.413269,275.377228 323.160736,262.294525 
z"/>
<path fill="#FD5CA7" opacity="1.000000" stroke="none" 
	d="
M351.177551,366.635254 
	C354.140717,360.741882 354.061432,354.479858 354.052399,348.126251 
	C353.975861,294.262878 354.077301,240.399109 353.881378,186.536331 
	C353.865112,182.054642 352.061523,177.579453 350.944031,172.715225 
	C359.398712,171.558487 365.081238,176.173630 365.322021,184.686844 
	C365.594818,194.329895 365.413422,203.986023 365.414001,213.636475 
	C365.416656,259.726593 365.434570,305.816711 365.397156,351.906799 
	C365.389038,361.905243 360.886230,366.624512 351.177551,366.635254 
z"/>
<path fill="#F65AA2" opacity="1.000000" stroke="none" 
	d="
M159.182831,366.579529 
	C159.912231,361.773224 161.876266,357.145660 161.890915,352.511932 
	C162.093140,288.597809 162.080795,224.682709 161.903671,160.768448 
	C161.892151,156.615387 160.109253,152.467224 158.996536,147.951904 
	C166.322708,146.503967 172.031815,150.458694 173.329010,157.698792 
	C173.591370,159.163071 173.671402,160.677414 173.671783,162.168732 
	C173.687943,225.468597 173.704681,288.768463 173.665344,352.068329 
	C173.659225,361.930145 168.806396,366.830963 159.182831,366.579529 
z"/>
<path fill="#040102" opacity="1.000000" stroke="none" 
	d="
M323.434631,262.525513 
	C338.413269,275.377228 343.775330,291.339539 338.425629,309.807037 
	C333.261200,327.635010 320.697021,338.284088 302.177917,341.236786 
	C278.843933,344.957092 256.152466,328.445496 252.170807,305.056427 
	C248.188873,281.665771 263.563660,258.743011 286.428253,254.022415 
	C299.910645,251.238846 312.143585,254.088516 323.434631,262.525513 
M271.950897,280.555908 
	C264.747498,292.137573 264.983002,305.072021 272.579285,315.071075 
	C280.082886,324.948059 292.853607,329.054291 304.644073,325.380951 
	C316.532745,321.677002 324.788788,310.946014 325.161621,298.712677 
	C325.561798,285.582123 318.188171,274.374603 306.215179,269.915009 
	C293.872223,265.317627 281.257263,269.065491 271.950897,280.555908 
z"/>
<path fill="#A11258" opacity="1.000000" stroke="none" 
	d="
M272.166138,280.261414 
	C281.257263,269.065491 293.872223,265.317627 306.215179,269.915009 
	C318.188171,274.374603 325.561798,285.582123 325.161621,298.712677 
	C324.788788,310.946014 316.532745,321.677002 304.644073,325.380951 
	C292.853607,329.054291 280.082886,324.948059 272.579285,315.071075 
	C264.983002,305.072021 264.747498,292.137573 272.166138,280.261414 
z"/>
</svg>