<svg version="1.1" id="Layer_1" xmlns="http://www.w3.org/2000/svg" xmlns:xlink="http://www.w3.org/1999/xlink" x="0px" y="0px"
	 width="100%" viewBox="0 0 512 512" enable-background="new 0 0 512 512" xml:space="preserve">
<path fill="#000000" opacity="1.000000" stroke="none" 
	d="
M513.000000,169.000000 
	C513.000000,283.972046 513.000000,398.444092 513.000000,512.958069 
	C342.402954,512.958069 171.805878,512.958069 1.104406,512.958069 
	C1.104406,342.444641 1.104406,171.889221 1.104406,1.166890 
	C171.666534,1.166890 342.333252,1.166890 513.000000,1.166890 
	C513.000000,56.860752 513.000000,112.680374 513.000000,169.000000 
M464.858917,497.979736 
	C465.525299,497.987793 466.194641,497.957764 466.857635,498.009430 
	C483.668304,499.320435 487.061249,491.166168 487.042084,478.205566 
	C486.825256,331.418823 486.766907,184.631317 487.074249,37.844883 
	C487.113800,18.946484 481.251434,14.578812 463.012390,16.023735 
	C323.375031,16.014376 183.737671,16.004154 44.100319,15.997140 
	C31.716658,15.996518 27.097868,20.703793 27.097702,33.320652 
	C27.095734,182.456116 27.095629,331.591553 27.097933,480.727020 
	C27.098127,493.304993 31.738667,498.002594 44.157104,498.002991 
	C122.307411,498.005585 200.457764,498.037018 278.607971,497.943665 
	C284.999695,497.936005 290.898834,497.941376 291.962585,505.823914 
	C298.693512,505.823914 304.827728,505.823914 310.883575,505.823914 
	C313.900421,498.637848 314.888733,498.005920 322.970978,498.005066 
	C342.466888,498.002991 361.962860,498.025574 381.458740,497.999268 
	C408.949188,497.962219 436.439575,497.890015 464.858917,497.979736 
z"/>
<path fill="#26A4FC" opacity="1.000000" stroke="none" 
	d="
M463.929993,497.832855 
	C436.439575,497.890015 408.949188,497.962219 381.458740,497.999268 
	C361.962860,498.025574 342.466888,498.002991 322.970978,498.005066 
	C314.888733,498.005920 313.900421,498.637848 310.883575,505.823914 
	C304.827728,505.823914 298.693512,505.823914 291.962585,505.823914 
	C290.898834,497.941376 284.999695,497.936005 278.607971,497.943665 
	C200.457764,498.037018 122.307411,498.005585 44.157104,498.002991 
	C31.738667,498.002594 27.098127,493.304993 27.097933,480.727020 
	C27.095629,331.591553 27.095734,182.456116 27.097702,33.320652 
	C27.097868,20.703793 31.716658,15.996518 44.100319,15.997140 
	C183.737671,16.004154 323.375031,16.014376 463.577301,16.434454 
	C465.429199,22.098631 467.833374,27.350569 467.840515,32.605762 
	C468.042694,181.438766 467.979706,330.272156 468.080811,479.105347 
	C468.085358,485.776001 467.201233,492.006561 463.929993,497.832855 
M173.500275,46.423843 
	C144.501129,46.424152 115.501724,46.348507 86.502945,46.451443 
	C67.133965,46.520191 55.689674,57.999012 55.685658,77.247948 
	C55.660667,197.078674 55.661003,316.909393 55.685413,436.740112 
	C55.689289,455.781006 67.047661,467.516144 86.003319,467.530701 
	C200.000778,467.618256 313.998413,467.628204 427.995514,467.407379 
	C433.432831,467.396851 439.415527,465.984375 444.187897,463.434784 
	C454.738403,457.798126 458.408844,448.023254 458.398438,436.240051 
	C458.292694,316.742737 458.334381,197.245316 458.328491,77.747925 
	C458.328400,76.082375 458.326050,74.410561 458.192566,72.752304 
	C457.349091,62.274643 452.370758,54.094612 442.873322,49.874779 
	C437.608704,47.535633 431.323486,46.576645 425.494507,46.562511 
	C341.830139,46.359627 258.165131,46.423878 173.500275,46.423843 
z"/>
<path fill="#0592FA" opacity="1.000000" stroke="none" 
	d="
M464.394470,497.906311 
	C467.201233,492.006561 468.085358,485.776001 468.080811,479.105347 
	C467.979706,330.272156 468.042694,181.438766 467.840515,32.605762 
	C467.833374,27.350569 465.429199,22.098631 464.036713,16.506390 
	C481.251434,14.578812 487.113800,18.946484 487.074249,37.844883 
	C486.766907,184.631317 486.825256,331.418823 487.042084,478.205566 
	C487.061249,491.166168 483.668304,499.320435 466.857635,498.009430 
	C466.194641,497.957764 465.525299,497.987793 464.394470,497.906311 
z"/>
<path fill="#010406" opacity="1.000000" stroke="none" 
	d="
M174.000275,46.423866 
	C258.165131,46.423878 341.830139,46.359627 425.494507,46.562511 
	C431.323486,46.576645 437.608704,47.535633 442.873322,49.874779 
	C452.370758,54.094612 457.349091,62.274643 458.192566,72.752304 
	C458.326050,74.410561 458.328400,76.082375 458.328491,77.747925 
	C458.334381,197.245316 458.292694,316.742737 458.398438,436.240051 
	C458.408844,448.023254 454.738403,457.798126 444.187897,463.434784 
	C439.415527,465.984375 433.432831,467.396851 427.995514,467.407379 
	C313.998413,467.628204 200.000778,467.618256 86.003319,467.530701 
	C67.047661,467.516144 55.689289,455.781006 55.685413,436.740112 
	C55.661003,316.909393 55.660667,197.078674 55.685658,77.247948 
	C55.689674,57.999012 67.133965,46.520191 86.502945,46.451443 
	C115.501724,46.348507 144.501129,46.424152 174.000275,46.423866 
M421.938995,452.383850 
	C423.769653,452.415497 425.600861,452.493774 427.430847,452.471130 
	C438.572449,452.333344 443.270691,447.700928 443.272461,436.612732 
	C443.291565,316.892426 443.291199,197.172089 443.273376,77.451775 
	C443.271729,66.312004 438.615387,61.663715 427.502625,61.539463 
	C425.348724,61.515381 423.192200,61.725800 420.218170,61.629353 
	C417.887512,61.564354 415.556824,61.442699 413.226166,61.442493 
	C305.742432,61.433144 198.258667,61.430340 90.774933,61.454350 
	C87.616745,61.455055 84.418953,61.491753 81.309258,61.967152 
	C75.877693,62.797508 71.679741,67.275047 70.965340,72.709785 
	C70.706078,74.682053 70.729942,76.699722 70.729774,78.696693 
	C70.719788,197.512054 70.720161,316.327423 70.726982,435.142792 
	C70.727081,436.974243 70.705246,438.817413 70.890518,440.635040 
	C71.500351,446.617920 75.726730,451.222443 81.653923,452.085632 
	C84.604736,452.515381 87.631683,452.546875 90.624222,452.547485 
	C198.607895,452.568970 306.591553,452.567932 414.575226,452.548920 
	C416.728485,452.548553 418.881714,452.298553 421.938995,452.383850 
z"/>
<path fill="#0563C1" opacity="1.000000" stroke="none" 
	d="
M421.034943,452.165009 
	C418.881714,452.298553 416.728485,452.548553 414.575226,452.548920 
	C306.591553,452.567932 198.607895,452.568970 90.624222,452.547485 
	C87.631683,452.546875 84.604736,452.515381 81.653923,452.085632 
	C75.726730,451.222443 71.500351,446.617920 70.890518,440.635040 
	C70.705246,438.817413 70.727081,436.974243 70.726982,435.142792 
	C70.720161,316.327423 70.719788,197.512054 70.729774,78.696693 
	C70.729942,76.699722 70.706078,74.682053 70.965340,72.709785 
	C71.679741,67.275047 75.877693,62.797508 81.309258,61.967152 
	C84.418953,61.491753 87.616745,61.455055 90.774933,61.454350 
	C198.258667,61.430340 305.742432,61.433144 413.226166,61.442493 
	C415.556824,61.442699 417.887512,61.564354 420.695038,62.097702 
	C422.447937,68.508942 424.825684,74.449722 424.837067,80.395035 
	C425.057068,195.209930 424.989716,310.025360 425.019196,424.840668 
	C425.021576,434.162079 425.629364,443.531799 421.034943,452.165009 
M115.104187,247.260376 
	C115.005882,253.603775 114.907570,259.947174 114.152664,266.451874 
	C109.755684,267.405273 107.642044,270.201202 107.644844,274.630188 
	C107.661758,301.453064 107.607002,328.276489 107.772964,355.098480 
	C107.823250,363.224457 111.471306,369.943756 117.776260,374.971649 
	C126.484962,381.916382 136.292755,383.280243 146.398712,378.736481 
	C157.135498,373.909088 162.562729,365.026062 162.738846,353.352417 
	C162.992630,336.528900 162.811066,319.698822 162.815140,302.871521 
	C162.815598,300.941681 162.815201,299.011810 162.815201,296.500031 
	C170.556900,296.500031 177.543686,296.815582 184.489746,296.418457 
	C192.772476,295.944946 201.209595,295.703613 209.251053,293.897736 
	C248.133377,285.165863 275.668243,247.793228 272.834991,208.307251 
	C269.962555,168.275269 237.059128,134.496490 197.221207,132.053421 
	C176.471100,130.780914 155.588226,131.103561 134.781189,131.512650 
	C118.654221,131.829727 107.842415,143.335022 107.696663,159.530457 
	C107.464272,185.352448 107.658394,211.178040 107.594795,237.001938 
	C107.581802,242.277542 109.641273,245.623032 115.104187,247.260376 
M397.343170,227.168182 
	C372.125977,203.179733 323.402649,202.946030 295.530640,226.679840 
	C272.176605,246.566391 272.615936,281.927032 296.393616,301.349426 
	C308.203827,310.996368 322.043488,316.667572 336.077728,322.004089 
	C339.257141,323.213043 342.418243,324.470032 346.263885,325.968323 
	C337.336823,329.291046 329.290405,328.357361 321.724518,323.533691 
	C319.339172,322.012970 317.099762,320.244781 314.641083,318.860748 
	C301.725189,311.589996 286.602814,314.282562 278.180664,325.263275 
	C269.670319,336.359009 270.570099,351.814056 281.671326,361.859863 
	C287.700134,367.315430 295.142761,371.717194 302.659943,374.925232 
	C326.475922,385.088867 350.597290,386.184540 373.936157,373.464844 
	C392.170593,363.527039 403.165131,348.053619 403.679352,326.933563 
	C404.193481,305.818542 393.410126,290.449951 375.630829,280.088226 
	C368.499969,275.932434 360.485809,273.290039 352.865662,269.977386 
	C350.541443,268.967010 348.190277,268.018555 345.851471,267.041748 
	C346.056824,266.409424 346.262177,265.777100 346.467529,265.144806 
	C351.352173,266.294373 356.310974,267.201294 361.099304,268.665802 
	C365.377441,269.974274 369.360504,272.281403 373.659851,273.480621 
	C388.163879,277.526337 401.437408,269.897949 405.315521,255.304367 
	C408.118530,244.756287 405.123871,235.590240 397.343170,227.168182 
z"/>
<path fill="#055BA2" opacity="1.000000" stroke="none" 
	d="
M421.486969,452.274414 
	C425.629364,443.531799 425.021576,434.162079 425.019196,424.840668 
	C424.989716,310.025360 425.057068,195.209930 424.837067,80.395035 
	C424.825684,74.449722 422.447937,68.508942 421.104370,62.197048 
	C423.192200,61.725800 425.348724,61.515381 427.502625,61.539463 
	C438.615387,61.663715 443.271729,66.312004 443.273376,77.451775 
	C443.291199,197.172089 443.291565,316.892426 443.272461,436.612732 
	C443.270691,447.700928 438.572449,452.333344 427.430847,452.471130 
	C425.600861,452.493774 423.769653,452.415497 421.486969,452.274414 
z"/>
<path fill="#000204" opacity="1.000000" stroke="none" 
	d="
M397.586487,227.425552 
	C405.123871,235.590240 408.118530,244.756287 405.315521,255.304367 
	C401.437408,269.897949 388.163879,277.526337 373.659851,273.480621 
	C369.360504,272.281403 365.377441,269.974274 361.099304,268.665802 
	C356.310974,267.201294 351.352173,266.294373 346.467529,265.144806 
	C346.262177,265.777100 346.056824,266.409424 345.851471,267.041748 
	C348.190277,268.018555 350.541443,268.967010 352.865662,269.977386 
	C360.485809,273.290039 368.499969,275.932434 375.630829,280.088226 
	C393.410126,290.449951 404.193481,305.818542 403.679352,326.933563 
	C403.165131,348.053619 392.170593,363.527039 373.936157,373.464844 
	C350.597290,386.184540 326.475922,385.088867 302.659943,374.925232 
	C295.142761,371.717194 287.700134,367.315430 281.671326,361.859863 
	C270.570099,351.814056 269.670319,336.359009 278.180664,325.263275 
	C286.602814,314.282562 301.725189,311.589996 314.641083,318.860748 
	C317.099762,320.244781 319.339172,322.012970 321.724518,323.533691 
	C329.290405,328.357361 337.336823,329.291046 346.263885,325.968323 
	C342.418243,324.470032 339.257141,323.213043 336.077728,322.004089 
	C322.043488,316.667572 308.203827,310.996368 296.393616,301.349426 
	C272.615936,281.927032 272.176605,246.566391 295.530640,226.679840 
	C323.402649,202.946030 372.125977,203.179733 397.586487,227.425552 
M364.211517,361.250427 
	C364.211517,361.250427 364.229858,361.412537 364.928345,361.238281 
	C367.486877,359.703094 370.200836,358.376160 372.579742,356.600342 
	C394.498474,340.238495 394.198181,311.083954 371.815277,295.414703 
	C367.507965,292.399353 362.612915,290.105835 357.758362,288.014801 
	C348.155914,283.878723 338.348114,280.221741 328.711273,276.162323 
	C322.528320,273.557831 320.795441,267.234558 324.726135,261.817963 
	C326.059998,259.979889 327.890350,258.376648 329.781860,257.089447 
	C340.710602,249.652145 352.373474,249.114090 364.472870,253.798004 
	C368.650635,255.415314 372.664886,257.537567 376.938721,258.806610 
	C385.278931,261.283142 390.761200,256.905792 391.178223,247.213303 
	C390.772339,240.866058 386.587463,237.069824 381.862549,233.781448 
	C360.700226,219.053177 323.778168,221.167404 304.876221,238.703217 
	C300.667480,242.607758 297.034943,247.999146 295.176239,253.406860 
	C289.848999,268.905853 295.304565,283.696747 310.410187,292.822723 
	C320.999725,299.220337 332.788208,303.630768 344.029266,308.953918 
	C348.818604,311.221832 353.989471,312.969879 358.261719,315.982635 
	C366.416443,321.733337 366.124084,331.337250 357.975342,337.220184 
	C355.728088,338.842560 353.070496,340.117737 350.409912,340.909271 
	C336.683685,344.992645 323.787354,343.253326 311.855957,335.048859 
	C309.276794,333.275269 306.530304,331.538452 303.604919,330.519379 
	C298.114410,328.606842 292.900330,330.457855 289.855774,334.796783 
	C286.825256,339.115723 286.745026,344.821960 290.315186,349.195770 
	C292.480530,351.848541 295.125702,354.566956 298.151550,355.970764 
	C305.953217,359.590485 313.861450,363.378357 322.137787,365.487701 
	C335.957367,369.009857 349.855438,368.628052 363.561890,361.959717 
	C363.832764,361.720978 364.103638,361.482269 364.211517,361.250427 
z"/>
<path fill="#000305" opacity="1.000000" stroke="none" 
	d="
M115.109131,246.370636 
	C109.641273,245.623032 107.581802,242.277542 107.594795,237.001938 
	C107.658394,211.178040 107.464272,185.352448 107.696663,159.530457 
	C107.842415,143.335022 118.654221,131.829727 134.781189,131.512650 
	C155.588226,131.103561 176.471100,130.780914 197.221207,132.053421 
	C237.059128,134.496490 269.962555,168.275269 272.834991,208.307251 
	C275.668243,247.793228 248.133377,285.165863 209.251053,293.897736 
	C201.209595,295.703613 192.772476,295.944946 184.489746,296.418457 
	C177.543686,296.815582 170.556900,296.500031 162.815201,296.500031 
	C162.815201,299.011810 162.815598,300.941681 162.815140,302.871521 
	C162.811066,319.698822 162.992630,336.528900 162.738846,353.352417 
	C162.562729,365.026062 157.135498,373.909088 146.398712,378.736481 
	C136.292755,383.280243 126.484962,381.916382 117.776260,374.971649 
	C111.471306,369.943756 107.823250,363.224457 107.772964,355.098480 
	C107.607002,328.276489 107.661758,301.453064 107.644844,274.630188 
	C107.642044,270.201202 109.755684,267.405273 114.737350,266.635010 
	C121.026703,267.645844 122.653900,269.685699 122.662537,276.441803 
	C122.694588,301.530853 122.646706,326.620026 122.696022,351.709045 
	C122.712524,360.104736 125.544937,363.848602 133.419464,365.929047 
	C142.990204,365.975250 147.728485,361.218201 147.765381,351.672882 
	C147.842621,331.686646 147.775131,311.699860 147.798019,291.713348 
	C147.807053,283.833771 149.992325,281.642853 157.860672,281.567719 
	C168.851654,281.462769 179.847153,281.563995 190.833359,281.285614 
	C212.648956,280.732819 230.523209,271.776459 243.808929,254.602097 
	C273.044617,216.809418 254.086319,166.475983 214.776428,151.444794 
	C207.898849,149.716751 201.323700,147.173553 194.662094,146.922241 
	C176.051804,146.220123 157.405869,146.419403 138.773682,146.355804 
	C126.858650,146.315125 122.684380,150.603195 122.678955,162.652176 
	C122.667946,187.113190 122.691353,211.574234 122.665169,236.035217 
	C122.657776,242.940033 121.241776,244.797256 115.109131,246.370636 
z"/>
<path fill="#25A4FB" opacity="1.000000" stroke="none" 
	d="
M115.106659,246.815506 
	C121.241776,244.797256 122.657776,242.940033 122.665169,236.035217 
	C122.691353,211.574234 122.667946,187.113190 122.678955,162.652176 
	C122.684380,150.603195 126.858650,146.315125 138.773682,146.355804 
	C157.405869,146.419403 176.051804,146.220123 194.662094,146.922241 
	C201.323700,147.173553 207.898849,149.716751 214.924286,151.762115 
	C216.057831,152.984756 216.747421,153.699265 217.508118,154.327713 
	C237.323364,170.697098 247.529877,191.243347 242.850998,217.170227 
	C238.290405,242.441772 223.262894,259.333679 198.602859,267.022888 
	C182.118790,272.162750 165.010880,270.920288 148.064453,270.990631 
	C138.316956,271.031067 137.013794,272.276123 137.011246,281.829620 
	C137.004883,305.645294 137.199875,329.463928 136.827835,353.273804 
	C136.762146,357.477173 134.344498,361.643768 133.012955,365.827362 
	C125.544937,363.848602 122.712524,360.104736 122.696022,351.709045 
	C122.646706,326.620026 122.694588,301.530853 122.662537,276.441803 
	C122.653900,269.685699 121.026703,267.645844 115.065643,266.554382 
	C114.907570,259.947174 115.005882,253.603775 115.106659,246.815506 
M174.500320,171.561798 
	C168.835800,171.562180 163.170853,171.517838 157.506882,171.574142 
	C150.244690,171.646332 147.860168,173.977066 147.864212,181.105194 
	C147.876663,203.096664 147.921783,225.088181 147.996552,247.079529 
	C148.019455,253.816177 150.561325,256.398041 157.401367,256.405121 
	C168.561752,256.416718 179.729660,256.480988 190.881241,256.118317 
	C212.759430,255.406830 230.495377,238.786621 232.742401,217.220200 
	C234.802002,197.452347 220.193878,177.517410 199.335617,173.018372 
	C191.643646,171.359268 183.459808,171.980576 174.500320,171.561798 
z"/>
<path fill="#26A4FC" opacity="1.000000" stroke="none" 
	d="
M362.996429,361.953796 
	C349.855438,368.628052 335.957367,369.009857 322.137787,365.487701 
	C313.861450,363.378357 305.953217,359.590485 298.151550,355.970764 
	C295.125702,354.566956 292.480530,351.848541 290.315186,349.195770 
	C286.745026,344.821960 286.825256,339.115723 289.855774,334.796783 
	C292.900330,330.457855 298.114410,328.606842 303.604919,330.519379 
	C306.530304,331.538452 309.276794,333.275269 311.855957,335.048859 
	C323.787354,343.253326 336.683685,344.992645 350.409912,340.909271 
	C353.070496,340.117737 355.728088,338.842560 357.975342,337.220184 
	C366.124084,331.337250 366.416443,321.733337 358.261719,315.982635 
	C353.989471,312.969879 348.818604,311.221832 344.029266,308.953918 
	C332.788208,303.630768 320.999725,299.220337 310.410187,292.822723 
	C295.304565,283.696747 289.848999,268.905853 295.176239,253.406860 
	C297.034943,247.999146 300.667480,242.607758 304.876221,238.703217 
	C323.778168,221.167404 360.700226,219.053177 381.862549,233.781448 
	C386.587463,237.069824 390.772339,240.866058 390.686890,247.684708 
	C383.307312,247.775360 376.187469,248.376053 369.577484,246.816162 
	C354.292023,243.208939 339.328400,242.446396 324.429932,248.047516 
	C311.892151,252.761154 306.448578,265.322693 313.300323,275.004700 
	C315.954956,278.755859 320.169464,281.867981 324.324921,284.003326 
	C335.863068,289.932281 347.849091,294.983459 359.463318,300.772308 
	C375.966309,308.997925 382.066498,322.936859 375.874908,340.198181 
	C373.185028,347.697144 368.182159,354.366425 364.229858,361.412537 
	C364.229858,361.412537 364.211517,361.250427 364.035156,361.307709 
	C363.571350,361.561249 363.283875,361.757507 362.996429,361.953796 
z"/>
<path fill="#0591F9" opacity="1.000000" stroke="none" 
	d="
M364.579102,361.325409 
	C368.182159,354.366425 373.185028,347.697144 375.874908,340.198181 
	C382.066498,322.936859 375.966309,308.997925 359.463318,300.772308 
	C347.849091,294.983459 335.863068,289.932281 324.324921,284.003326 
	C320.169464,281.867981 315.954956,278.755859 313.300323,275.004700 
	C306.448578,265.322693 311.892151,252.761154 324.429932,248.047516 
	C339.328400,242.446396 354.292023,243.208939 369.577484,246.816162 
	C376.187469,248.376053 383.307312,247.775360 390.604462,248.071152 
	C390.761200,256.905792 385.278931,261.283142 376.938721,258.806610 
	C372.664886,257.537567 368.650635,255.415314 364.472870,253.798004 
	C352.373474,249.114090 340.710602,249.652145 329.781860,257.089447 
	C327.890350,258.376648 326.059998,259.979889 324.726135,261.817963 
	C320.795441,267.234558 322.528320,273.557831 328.711273,276.162323 
	C338.348114,280.221741 348.155914,283.878723 357.758362,288.014801 
	C362.612915,290.105835 367.507965,292.399353 371.815277,295.414703 
	C394.198181,311.083954 394.498474,340.238495 372.579742,356.600342 
	C370.200836,358.376160 367.486877,359.703094 364.579102,361.325409 
z"/>
<path fill="#0591F9" opacity="1.000000" stroke="none" 
	d="
M363.279175,361.956757 
	C363.283875,361.757507 363.571350,361.561249 364.116669,361.304260 
	C364.103638,361.482269 363.832764,361.720978 363.279175,361.956757 
z"/>
<path fill="#0591F8" opacity="1.000000" stroke="none" 
	d="
M133.419464,365.929047 
	C134.344498,361.643768 136.762146,357.477173 136.827835,353.273804 
	C137.199875,329.463928 137.004883,305.645294 137.011246,281.829620 
	C137.013794,272.276123 138.316956,271.031067 148.064453,270.990631 
	C165.010880,270.920288 182.118790,272.162750 198.602859,267.022888 
	C223.262894,259.333679 238.290405,242.441772 242.850998,217.170227 
	C247.529877,191.243347 237.323364,170.697098 217.508118,154.327713 
	C216.747421,153.699265 216.057831,152.984756 215.187241,151.993011 
	C254.086319,166.475983 273.044617,216.809418 243.808929,254.602097 
	C230.523209,271.776459 212.648956,280.732819 190.833359,281.285614 
	C179.847153,281.563995 168.851654,281.462769 157.860672,281.567719 
	C149.992325,281.642853 147.807053,283.833771 147.798019,291.713348 
	C147.775131,311.699860 147.842621,331.686646 147.765381,351.672882 
	C147.728485,361.218201 142.990204,365.975250 133.419464,365.929047 
z"/>
<path fill="#000203" opacity="1.000000" stroke="none" 
	d="
M175.000305,171.561783 
	C183.459808,171.980576 191.643646,171.359268 199.335617,173.018372 
	C220.193878,177.517410 234.802002,197.452347 232.742401,217.220200 
	C230.495377,238.786621 212.759430,255.406830 190.881241,256.118317 
	C179.729660,256.480988 168.561752,256.416718 157.401367,256.405121 
	C150.561325,256.398041 148.019455,253.816177 147.996552,247.079529 
	C147.921783,225.088181 147.876663,203.096664 147.864212,181.105194 
	C147.860168,173.977066 150.244690,171.646332 157.506882,171.574142 
	C163.170853,171.517838 168.835800,171.562180 175.000305,171.561783 
M168.598434,241.308151 
	C175.922256,241.259583 183.252258,241.385101 190.568588,241.125397 
	C204.812668,240.619736 216.346863,229.860947 217.779358,216.000061 
	C219.082031,203.395203 209.652985,189.718674 196.109894,187.701752 
	C185.443451,186.113235 174.351379,187.382645 163.294540,187.382645 
	C163.294540,205.162415 163.294540,223.026398 163.294540,241.044769 
	C165.000519,241.148331 166.311050,241.227875 168.598434,241.308151 
z"/>
<path fill="#0563C0" opacity="1.000000" stroke="none" 
	d="
M168.110001,241.307785 
	C166.311050,241.227875 165.000519,241.148331 163.294540,241.044769 
	C163.294540,223.026398 163.294540,205.162415 163.294540,187.382645 
	C174.351379,187.382645 185.443451,186.113235 196.109894,187.701752 
	C209.652985,189.718674 219.082031,203.395203 217.779358,216.000061 
	C216.346863,229.860947 204.812668,240.619736 190.568588,241.125397 
	C183.252258,241.385101 175.922256,241.259583 168.110001,241.307785 
z"/>
</svg>