<?xml version="1.0" encoding="utf-8"?>
<!-- Generator: Adobe Illustrator 28.1.0, SVG Export Plug-In . SVG Version: 6.00 Build 0)  -->
<svg version="1.1" id="Layer_1" xmlns="http://www.w3.org/2000/svg" xmlns:xlink="http://www.w3.org/1999/xlink" x="0px" y="0px"
	 viewBox="0 0 512 512" style="enable-background:new 0 0 512 512;" xml:space="preserve">
<style type="text/css">
	.st0{fill:#FFD23C;}
	.st1{fill:#FFA50B;}
	.st2{fill:#FF640A;}
	.st3{fill:#FF650B;}
	.st4{fill:#FF650C;}
</style>
<path class="st0" d="M0,279c0-14.4,0-28.7,0.4-43.8c2.3-13.2,3.5-25.8,6.2-38.1c5.8-25.6,15.8-49.6,29.3-72.2
	c16.4-27.4,37.5-50.7,62.3-70.4c18.8-15,39.6-26.9,62.1-35.7c19.8-7.8,40.1-13.4,61.2-15.9c4.2-0.5,8.3-1.3,12.4-2
	c14.4,0,28.7,0,43.8,0.4c13.2,2.3,25.8,3.5,38.1,6.2c25.6,5.8,49.6,15.8,72.2,29.3c27.4,16.4,50.7,37.5,70.4,62.3
	c15,18.8,26.9,39.6,35.7,62.1c7.8,19.8,13.4,40.1,15.9,61.2c0.5,4.2,1.3,8.3,2,12.4c0,1.1,0,2.1-0.3,3.4c-1.7-1.1-3.2-2.4-4.6-3.9
	c-30.2-30.2-60.4-60.4-90.6-90.6c-1.4-1.4-3-2.6-4.9-3.9c-31.4-0.1-62.4-0.2-93.6-0.5c-10.7-10.7-21.3-21.2-32.1-31.8
	c-19.6,3.1-39,6.4-58.3,9.7c-40.6,7.1-81.2,14.4-121.9,21.4c-4.8,0.8-6.6,2.2-6.6,7.4c0.2,74,0.1,147.9,0.2,221.9
	c0,1.9,0.5,3.9,1,6.1c1.5,1.7,2.9,3.2,4.3,4.6c43.1,43.1,86.2,86.2,129.2,129.3c1.5,1.5,2.9,3.2,4.3,4.8c-1.1,0-2.1,0-3.8-0.4
	c-13.1-2.3-25.8-3.5-38-6.2c-25.6-5.8-49.6-15.8-72.2-29.3c-27.4-16.4-50.7-37.5-70.4-62.3c-15-18.8-26.9-39.6-35.7-62.1
	C10.1,332.8,4.5,312.5,2,291.4C1.5,287.2,0.7,283.1,0,279z"/>
<path class="st1" d="M286.1,107.9c10.5,10.5,21.1,20.9,31.3,31.7c-6,0.3-11.6,0.6-17.3,0.3c-3.9-0.2-5.2,1.1-5.2,5.1
	c0.2,33,0.1,66,0.2,99.4c0,4.4,0,8.4,0,12.8c0,3.6,0,6.8,0.1,10.4c0,4.5,0.1,8.6,0.1,13.2c-0.1,3.7-0.1,6.9-0.1,10.6
	c0,4.4,0,8.4,0,12.8c0,3.6,0,6.8,0.1,10.4c0,4.4,0,8.4-0.1,12.8c0,14,0.1,27.4-0.1,40.9c-0.1,4.4,1.3,5.7,5.7,5.7
	c35.1-0.2,70.3-0.2,105.4,0c4.9,0,6.2-1.5,6.2-6.2c-0.2-46.1-0.1-92.2-0.1-138.4c0-29.8-0.1-59.6-0.1-89.4c1.5,1.3,3.1,2.5,4.5,3.9
	c30.2,30.2,60.4,60.4,90.6,90.6c1.4,1.4,2.9,2.7,4.6,4.3c0.3,13.2,0.3,26.2-0.1,39.9c-1.1,7.4-1.6,14.1-2.7,20.7
	c-3.8,24-11.1,47-21.7,68.8c-9.9,20.4-21.7,39.7-37.4,56.2c-11.5,12.1-23.1,24.2-36,34.7c-18.8,15.3-39.9,27.2-62.6,36.1
	c-19.7,7.7-39.9,13.3-61,15.7c-4.1,0.5-8.2,1.3-12.3,2c-13,0-26,0-39.5,0c-1.9-1.6-3.3-3.3-4.8-4.8
	c-43.1-43.1-86.2-86.2-129.2-129.3c-1.4-1.4-2.8-2.9-3.9-4.6c18.7,3,37.2,6.4,55.7,9.6c40.8,7.2,81.5,14.3,122.3,21.5
	c7.1,1.2,7.4,1.1,7.4-6c0-69.7,0-139.3,0-209C286,162.9,286.1,135.4,286.1,107.9z"/>
<path class="st2" d="M285.8,107.7c0.3,27.7,0.2,55.2,0.2,82.7c0,69.7,0,139.3,0,209c0,7.2-0.3,7.3-7.4,6
	c-40.8-7.2-81.5-14.3-122.3-21.5c-18.5-3.3-37-6.6-55.9-9.9c-0.7-2-1.2-3.9-1.2-5.8c0-74,0-147.9-0.2-221.9c0-5.2,1.8-6.6,6.6-7.4
	c40.6-6.9,81.2-14.2,121.9-21.4C246.8,114.1,266.2,110.9,285.8,107.7 M208.1,216.4c-6.2-4.1-13.3-3.7-20.3-3.7c-9.4,0-18.9,0-28.3,0
	c0,28.4,0,56.1,0,84.1c5.5,0,10.7,0,16.4,0c0-9.3,0-18.4,0-27.9c4.3,0,8.1,0.2,11.9,0c5.1-0.3,10.5,0,15.3-1.4
	c11-3.2,17-11.5,18.6-22.5C223.4,233.1,218.6,223.6,208.1,216.4z"/>
<path class="st3" d="M295.1,244c0-33,0-66-0.1-99c0-4,1.4-5.3,5.2-5.1c5.7,0.2,11.3,0,17.5,0c31.4,0,62.4,0.1,93.9,0.2
	c0.5,29.8,0.6,59.6,0.6,89.4c0,46.1-0.1,92.2,0.1,138.4c0,4.8-1.3,6.3-6.2,6.2c-35.1-0.2-70.3-0.2-105.4,0c-4.4,0-5.8-1.2-5.7-5.7
	c0.3-13.5,0.1-27,0.6-40.8c26.7-0.3,52.9-0.3,79.3-0.3c0-4.6,0-8.8,0-13.1c-26.8,0-53.3,0-79.7,0c0-3.2,0-6.3,0.4-9.9
	c26.7-0.4,53-0.4,79.3-0.4c0-4.6,0-8.8,0-13.3c-17.5,0-34.7,0-51.8,0c-9.3,0-18.6,0.2-27.9,0.3c0-3.2,0-6.4,0.6-10.1
	c26.7-0.5,52.9-0.5,79.1-0.5c0-4.8,0-9,0-13.2c-26.8,0-53.2,0-79.7,0c0-3.2,0-6.3,0.4-9.9c26.7-0.4,53-0.4,79.3-0.4
	c0-4.7,0-8.8,0-13.3c-17.5,0-34.7,0-51.8,0C313.7,243.7,304.4,243.9,295.1,244 M350.5,195.9c-5.8,0-11.5,0-17.7,0
	c0-11.6,0-22.5,0-33.4c-19.2,0.1-34,16.4-32.7,35c1.4,19.2,17.6,32.5,37.1,30.4c18.5-2,29.8-19.7,28.1-32
	C360.8,195.9,356.1,195.9,350.5,195.9 M339.9,167.6c0,6.9,0,13.8,0,21c9.5,0,18.6,0,27.6,0c0.6-16.2-12.6-30.1-27.6-28.8
	C339.9,162,339.9,164.3,339.9,167.6z"/>
<path class="st4" d="M175.8,235.1c0-2.8,0-5.1,0-7.9c6.9,0,13.5-0.5,20,0.1c6.3,0.6,9.9,7.1,9.2,15.4c-0.6,7.5-4.2,11.4-10.9,11.6
	c-5.9,0.2-11.8,0-18.3,0C175.8,247.7,175.8,241.6,175.8,235.1z"/>
</svg>
