<svg version="1.1" id="Layer_1" xmlns="http://www.w3.org/2000/svg" xmlns:xlink="http://www.w3.org/1999/xlink" x="0px" y="0px"
	 width="100%" viewBox="0 0 512 512" enable-background="new 0 0 512 512" xml:space="preserve">
<path fill="#000000" opacity="1.000000" stroke="none" 
	d="
M513.000000,169.000000 
	C513.000000,283.972046 513.000000,398.444092 513.000000,512.958069 
	C342.402954,512.958069 171.805878,512.958069 1.104406,512.958069 
	C1.104406,342.444641 1.104406,171.889221 1.104406,1.166890 
	C171.666534,1.166890 342.333252,1.166890 513.000000,1.166890 
	C513.000000,56.860752 513.000000,112.680374 513.000000,169.000000 
M463.049500,16.026834 
	C455.884338,16.016413 448.719177,15.997696 441.554016,15.996989 
	C408.559570,15.993736 375.564636,16.070852 342.571533,15.861821 
	C339.730743,15.843823 335.057465,14.603012 334.408844,12.793003 
	C332.354767,7.061130 328.308502,7.900844 324.116241,7.984118 
	C321.117889,8.043676 318.111084,7.887026 315.121582,8.060629 
	C314.142487,8.117487 312.507385,8.747036 312.358093,9.390014 
	C310.836884,15.941501 305.946198,16.030106 300.681183,16.027342 
	C215.195587,15.982472 129.709946,15.994559 44.224316,15.996753 
	C31.765404,15.997072 27.099024,20.682627 27.098852,33.198505 
	C27.096815,182.340103 27.096964,331.481689 27.098539,480.623291 
	C27.098675,493.430878 31.693832,498.003662 44.554676,498.003754 
	C182.531479,498.004791 320.508270,498.005066 458.485077,497.997009 
	C460.314178,497.996918 462.143280,497.885803 464.891357,497.978424 
	C465.557587,497.987030 466.226715,497.958069 466.889587,498.009705 
	C483.518616,499.305695 487.061462,491.322021 487.041748,478.176971 
	C486.821838,331.412476 486.761871,184.647232 487.075378,37.883083 
	C487.116150,18.802450 481.097260,14.597317 463.049500,16.026834 
z"/>
<path fill="#CB7BB9" opacity="1.000000" stroke="none" 
	d="
M463.972382,497.826477 
	C462.143280,497.885803 460.314178,497.996918 458.485077,497.997009 
	C320.508270,498.005066 182.531479,498.004791 44.554676,498.003754 
	C31.693832,498.003662 27.098675,493.430878 27.098539,480.623291 
	C27.096964,331.481689 27.096815,182.340103 27.098852,33.198505 
	C27.099024,20.682627 31.765404,15.997072 44.224316,15.996753 
	C129.709946,15.994559 215.195587,15.982472 300.681183,16.027342 
	C305.946198,16.030106 310.836884,15.941501 312.358093,9.390014 
	C312.507385,8.747036 314.142487,8.117487 315.121582,8.060629 
	C318.111084,7.887026 321.117889,8.043676 324.116241,7.984118 
	C328.308502,7.900844 332.354767,7.061130 334.408844,12.793003 
	C335.057465,14.603012 339.730743,15.843823 342.571533,15.861821 
	C375.564636,16.070852 408.559570,15.993736 441.554016,15.996989 
	C448.719177,15.997696 455.884338,16.016413 463.606628,16.438946 
	C465.444580,22.106400 467.837097,27.360233 467.844208,32.617298 
	C468.045410,181.273651 467.980988,329.930359 468.086548,478.586884 
	C468.091400,485.414948 467.288239,491.826569 463.972382,497.826477 
M385.500305,46.425850 
	C286.169342,46.425896 186.837845,46.596191 87.507874,46.283203 
	C67.496506,46.220150 55.421535,60.081821 55.478264,78.242111 
	C55.851017,197.571426 55.662716,316.902496 55.678658,436.232971 
	C55.681316,456.139160 67.020836,467.548584 86.994995,467.555298 
	C200.325623,467.593445 313.656250,467.593079 426.986877,467.555634 
	C446.950470,467.549042 458.317871,456.128815 458.320709,436.246399 
	C458.337708,316.749237 458.337738,197.252090 458.320709,77.754944 
	C458.317871,57.841156 446.985413,46.527390 426.999298,46.437729 
	C413.499908,46.377167 400.000000,46.425995 385.500305,46.425850 
z"/>
<path fill="#C164AD" opacity="1.000000" stroke="none" 
	d="
M464.431885,497.902435 
	C467.288239,491.826569 468.091400,485.414948 468.086548,478.586884 
	C467.980988,329.930359 468.045410,181.273651 467.844208,32.617298 
	C467.837097,27.360233 465.444580,22.106400 464.068695,16.511278 
	C481.097260,14.597317 487.116150,18.802450 487.075378,37.883083 
	C486.761871,184.647232 486.821838,331.412476 487.041748,478.176971 
	C487.061462,491.322021 483.518616,499.305695 466.889587,498.009705 
	C466.226715,497.958069 465.557587,497.987030 464.431885,497.902435 
z"/>
<path fill="#040204" opacity="1.000000" stroke="none" 
	d="
M386.000305,46.425873 
	C400.000000,46.425995 413.499908,46.377167 426.999298,46.437729 
	C446.985413,46.527390 458.317871,57.841156 458.320709,77.754944 
	C458.337738,197.252090 458.337708,316.749237 458.320709,436.246399 
	C458.317871,456.128815 446.950470,467.549042 426.986877,467.555634 
	C313.656250,467.593079 200.325623,467.593445 86.994995,467.555298 
	C67.020836,467.548584 55.681316,456.139160 55.678658,436.232971 
	C55.662716,316.902496 55.851017,197.571426 55.478264,78.242111 
	C55.421535,60.081821 67.496506,46.220150 87.507874,46.283203 
	C186.837845,46.596191 286.169342,46.425896 386.000305,46.425873 
M420.206604,61.699360 
	C417.378418,61.586323 414.550293,61.374897 411.722076,61.374451 
	C305.253021,61.357639 198.783981,61.356777 92.314934,61.377224 
	C89.154213,61.377831 85.975632,61.462357 82.836449,61.798199 
	C75.558540,62.576805 71.187881,67.356705 70.814827,74.721832 
	C70.747459,76.051842 70.772247,77.387062 70.772232,78.719872 
	C70.770576,197.518677 70.770325,316.317474 70.774216,435.116272 
	C70.774269,436.781830 70.740990,438.454254 70.871964,440.111725 
	C71.386444,446.622559 75.712669,451.328461 82.185593,452.113190 
	C85.646622,452.532776 89.164925,452.618774 92.657440,452.619598 
	C198.959869,452.644379 305.262299,452.644043 411.564728,452.618927 
	C414.721100,452.618195 417.877441,452.308899 421.950562,452.274780 
	C424.616150,452.278870 427.286652,452.389526 429.946411,452.267181 
	C438.037445,451.894867 442.882996,447.014160 443.177856,439.003143 
	C443.257507,436.839508 443.213165,434.671021 443.213196,432.504761 
	C443.214386,315.856964 443.028046,199.208572 443.399872,82.561974 
	C443.460968,63.394485 436.663940,60.454262 420.206604,61.699360 
z"/>
<path fill="#722D65" opacity="1.000000" stroke="none" 
	d="
M421.033783,452.143463 
	C417.877441,452.308899 414.721100,452.618195 411.564728,452.618927 
	C305.262299,452.644043 198.959869,452.644379 92.657440,452.619598 
	C89.164925,452.618774 85.646622,452.532776 82.185593,452.113190 
	C75.712669,451.328461 71.386444,446.622559 70.871964,440.111725 
	C70.740990,438.454254 70.774269,436.781830 70.774216,435.116272 
	C70.770325,316.317474 70.770576,197.518677 70.772232,78.719872 
	C70.772247,77.387062 70.747459,76.051842 70.814827,74.721832 
	C71.187881,67.356705 75.558540,62.576805 82.836449,61.798199 
	C85.975632,61.462357 89.154213,61.377831 92.314934,61.377224 
	C198.783981,61.356777 305.253021,61.357639 411.722076,61.374451 
	C414.550293,61.374897 417.378418,61.586323 420.689087,62.147251 
	C422.448517,68.370712 424.828796,74.144218 424.839600,79.922150 
	C425.057190,196.391541 424.973022,312.861481 425.067383,429.331177 
	C425.073822,437.253448 424.692749,444.945801 421.033783,452.143463 
M164.599213,311.172546 
	C170.047714,310.549011 171.959259,306.911011 171.713760,302.073578 
	C171.508530,298.029449 173.082809,297.053741 176.903564,297.027100 
	C188.214920,296.948334 199.663666,297.479370 210.807739,295.946991 
	C250.184387,290.532379 280.754242,256.595032 281.909576,217.997345 
	C283.123932,177.427551 255.464447,141.639389 215.541519,134.077988 
	C190.544449,129.343536 165.047012,132.464737 139.768173,132.366013 
	C139.443130,132.364746 139.118195,132.503510 138.792145,132.571747 
	C125.034332,135.450760 116.460724,146.335770 116.442123,161.626877 
	C116.364716,225.271286 116.406754,288.915863 116.429031,352.560394 
	C116.429665,354.385468 116.617249,356.221436 116.857521,358.033783 
	C118.643150,371.502411 130.019714,381.697083 143.488113,381.938080 
	C157.086395,382.181396 169.018448,372.660553 171.033997,359.220337 
	C171.964890,353.012970 171.648636,346.609131 171.763901,340.291931 
	C171.859695,335.042755 169.388672,331.773682 164.113876,330.072937 
	C164.017639,323.824066 163.921387,317.575165 164.599213,311.172546 
M378.687195,264.131165 
	C381.230316,262.547791 383.878235,261.109009 386.298004,259.355438 
	C395.707733,252.536346 399.724884,240.130325 396.210693,229.119904 
	C392.532593,217.596115 382.326752,210.151382 370.412567,209.788406 
	C361.827209,209.526855 355.107422,213.732468 348.370514,218.067078 
	C346.263306,219.422882 344.716217,220.035995 342.219238,218.246704 
	C333.374695,211.908936 323.712616,210.943634 313.909637,215.766556 
	C303.899200,220.691559 298.544678,229.193680 298.475311,240.207596 
	C298.235107,278.346313 298.136383,316.489777 298.497070,354.626587 
	C298.647003,370.479584 311.224365,382.134277 326.469452,381.947235 
	C341.927124,381.757599 353.627716,369.373566 353.728668,352.785126 
	C353.851288,332.632996 353.634369,312.477905 353.898010,292.328461 
	C353.938202,289.256653 354.908325,285.335266 356.943817,283.309540 
	C363.614716,276.670563 370.975342,270.724701 378.687195,264.131165 
z"/>
<path fill="#602257" opacity="1.000000" stroke="none" 
	d="
M421.492188,452.209106 
	C424.692749,444.945801 425.073822,437.253448 425.067383,429.331177 
	C424.973022,312.861481 425.057190,196.391541 424.839600,79.922150 
	C424.828796,74.144218 422.448517,68.370712 421.101929,62.227036 
	C436.663940,60.454262 443.460968,63.394485 443.399872,82.561974 
	C443.028046,199.208572 443.214386,315.856964 443.213196,432.504761 
	C443.213165,434.671021 443.257507,436.839508 443.177856,439.003143 
	C442.882996,447.014160 438.037445,451.894867 429.946411,452.267181 
	C427.286652,452.389526 424.616150,452.278870 421.492188,452.209106 
z"/>
<path fill="#030203" opacity="1.000000" stroke="none" 
	d="
M164.016586,331.006073 
	C169.388672,331.773682 171.859695,335.042755 171.763901,340.291931 
	C171.648636,346.609131 171.964890,353.012970 171.033997,359.220337 
	C169.018448,372.660553 157.086395,382.181396 143.488113,381.938080 
	C130.019714,381.697083 118.643150,371.502411 116.857521,358.033783 
	C116.617249,356.221436 116.429665,354.385468 116.429031,352.560394 
	C116.406754,288.915863 116.364716,225.271286 116.442123,161.626877 
	C116.460724,146.335770 125.034332,135.450760 138.792145,132.571747 
	C139.118195,132.503510 139.443130,132.364746 139.768173,132.366013 
	C165.047012,132.464737 190.544449,129.343536 215.541519,134.077988 
	C255.464447,141.639389 283.123932,177.427551 281.909576,217.997345 
	C280.754242,256.595032 250.184387,290.532379 210.807739,295.946991 
	C199.663666,297.479370 188.214920,296.948334 176.903564,297.027100 
	C173.082809,297.053741 171.508530,298.029449 171.713760,302.073578 
	C171.959259,306.911011 170.047714,310.549011 163.847809,311.168457 
	C158.561417,310.320038 156.737213,307.367767 156.737183,302.992798 
	C156.737152,299.332916 156.703415,295.672821 156.735580,292.013245 
	C156.800491,284.628052 159.236511,282.171906 166.624573,282.128632 
	C177.271042,282.066284 187.918106,282.101074 198.564423,282.023743 
	C240.435715,281.719696 271.945709,245.907349 265.901093,204.499649 
	C262.441681,180.801376 248.904007,163.868408 226.916718,153.520172 
	C226.222031,153.183914 225.695023,153.063248 224.983017,152.687286 
	C224.197739,152.292007 223.597473,152.152039 222.705978,151.782043 
	C214.290039,150.050262 206.205109,147.587555 198.032196,147.249039 
	C181.580063,146.567551 165.080002,147.040955 148.599716,147.041901 
	C135.461823,147.042648 131.606552,150.865265 131.605469,163.941086 
	C131.600342,226.033493 131.602997,288.125885 131.604477,350.218292 
	C131.604507,351.549927 131.565765,352.884979 131.643387,354.212677 
	C132.060654,361.350372 135.543198,365.193817 143.173187,366.738159 
	C151.922073,366.151947 156.333984,361.795593 156.680222,353.584686 
	C156.862625,349.259613 156.876892,344.914490 156.692352,340.590149 
	C156.464294,335.246124 158.721069,332.020447 164.016586,331.006073 
z"/>
<path fill="#050204" opacity="1.000000" stroke="none" 
	d="
M378.379028,264.321777 
	C370.975342,270.724701 363.614716,276.670563 356.943817,283.309540 
	C354.908325,285.335266 353.938202,289.256653 353.898010,292.328461 
	C353.634369,312.477905 353.851288,332.632996 353.728668,352.785126 
	C353.627716,369.373566 341.927124,381.757599 326.469452,381.947235 
	C311.224365,382.134277 298.647003,370.479584 298.497070,354.626587 
	C298.136383,316.489777 298.235107,278.346313 298.475311,240.207596 
	C298.544678,229.193680 303.899200,220.691559 313.909637,215.766556 
	C323.712616,210.943634 333.374695,211.908936 342.219238,218.246704 
	C344.716217,220.035995 346.263306,219.422882 348.370514,218.067078 
	C355.107422,213.732468 361.827209,209.526855 370.412567,209.788406 
	C382.326752,210.151382 392.532593,217.596115 396.210693,229.119904 
	C399.724884,240.130325 395.707733,252.536346 386.298004,259.355438 
	C383.878235,261.109009 381.230316,262.547791 378.379028,264.321777 
M370.193604,224.922943 
	C367.675903,225.618195 364.938416,225.900269 362.687836,227.097595 
	C358.444946,229.354843 354.426819,232.055511 350.415894,234.723175 
	C343.331879,239.434647 341.327850,239.198059 335.846985,232.673416 
	C332.382965,228.549667 327.235046,226.878571 322.413391,228.512146 
	C317.190460,230.281708 314.164032,233.928070 313.691467,239.504807 
	C313.551270,241.159195 313.532410,242.827545 313.531647,244.489517 
	C313.521606,266.290314 313.523743,288.091095 313.525085,309.891876 
	C313.525970,324.203827 313.450958,338.516449 313.563904,352.827515 
	C313.629578,361.151642 317.080994,365.176422 325.561249,366.863708 
	C334.349701,366.052246 338.576660,361.583374 338.629913,352.520660 
	C338.735535,334.555115 339.528900,316.533447 338.387848,298.640167 
	C337.504059,284.780487 342.554535,274.426453 352.133453,265.572266 
	C356.508545,261.528259 361.325470,257.932037 366.141968,254.405884 
	C369.618835,251.860504 373.533508,249.918716 377.058594,247.432251 
	C381.596100,244.231628 383.493561,238.906601 381.837097,233.779999 
	C380.172699,228.628998 376.735138,225.330627 370.193604,224.922943 
z"/>
<path fill="#C164AD" opacity="1.000000" stroke="none" 
	d="
M164.065231,330.539490 
	C158.721069,332.020447 156.464294,335.246124 156.692352,340.590149 
	C156.876892,344.914490 156.862625,349.259613 156.680222,353.584686 
	C156.333984,361.795593 151.922073,366.151947 143.252045,366.329712 
	C143.998322,359.970795 145.768799,354.154938 145.869293,348.310364 
	C146.224289,327.664642 146.007462,307.009094 146.007477,286.357269 
	C146.007507,272.140625 147.101059,271.163849 161.263153,270.987549 
	C173.061066,270.840668 184.974213,271.317230 196.627594,269.854584 
	C228.226669,265.888489 250.268021,243.239426 252.718277,211.616455 
	C254.367813,190.327499 246.407959,172.206863 230.115784,158.003693 
	C228.836975,156.888870 228.082550,155.172531 227.084412,153.735764 
	C248.904007,163.868408 262.441681,180.801376 265.901093,204.499649 
	C271.945709,245.907349 240.435715,281.719696 198.564423,282.023743 
	C187.918106,282.101074 177.271042,282.066284 166.624573,282.128632 
	C159.236511,282.171906 156.800491,284.628052 156.735580,292.013245 
	C156.703415,295.672821 156.737152,299.332916 156.737183,302.992798 
	C156.737213,307.367767 158.561417,310.320038 163.460754,311.245331 
	C163.921387,317.575165 164.017639,323.824066 164.065231,330.539490 
z"/>
<path fill="#CC7BBA" opacity="1.000000" stroke="none" 
	d="
M226.916718,153.520172 
	C228.082550,155.172531 228.836975,156.888870 230.115784,158.003693 
	C246.407959,172.206863 254.367813,190.327499 252.718277,211.616455 
	C250.268021,243.239426 228.226669,265.888489 196.627594,269.854584 
	C184.974213,271.317230 173.061066,270.840668 161.263153,270.987549 
	C147.101059,271.163849 146.007507,272.140625 146.007477,286.357269 
	C146.007462,307.009094 146.224289,327.664642 145.869293,348.310364 
	C145.768799,354.154938 143.998322,359.970795 142.914902,366.208282 
	C135.543198,365.193817 132.060654,361.350372 131.643387,354.212677 
	C131.565765,352.884979 131.604507,351.549927 131.604477,350.218292 
	C131.602997,288.125885 131.600342,226.033493 131.605469,163.941086 
	C131.606552,150.865265 135.461823,147.042648 148.599716,147.041901 
	C165.080002,147.040955 181.580063,146.567551 198.032196,147.249039 
	C206.205109,147.587555 214.290039,150.050262 222.933884,151.984375 
	C224.024673,152.592026 224.596344,152.767303 225.168015,152.942581 
	C225.695023,153.063248 226.222031,153.183914 226.916718,153.520172 
M239.154724,228.576675 
	C247.752960,203.468567 231.855225,176.490585 205.465637,173.140274 
	C192.507187,171.495117 179.228287,172.297516 166.092651,172.156570 
	C159.372787,172.084457 156.808609,174.777267 156.812119,181.584213 
	C156.823563,203.727463 156.873779,225.870758 156.961594,248.013840 
	C156.987122,254.454468 159.612579,257.041992 166.092529,257.062347 
	C176.248047,257.094238 186.404800,257.104614 196.559402,256.985840 
	C216.521957,256.752380 230.718063,247.594971 239.154724,228.576675 
z"/>
<path fill="#C164AD" opacity="1.000000" stroke="none" 
	d="
M224.983017,152.687286 
	C224.596344,152.767303 224.024673,152.592026 223.225098,152.214417 
	C223.597473,152.152039 224.197739,152.292007 224.983017,152.687286 
z"/>
<path fill="#CC7BBA" opacity="1.000000" stroke="none" 
	d="
M324.894897,366.627258 
	C317.080994,365.176422 313.629578,361.151642 313.563904,352.827515 
	C313.450958,338.516449 313.525970,324.203827 313.525085,309.891876 
	C313.523743,288.091095 313.521606,266.290314 313.531647,244.489517 
	C313.532410,242.827545 313.551270,241.159195 313.691467,239.504807 
	C314.164032,233.928070 317.190460,230.281708 322.413391,228.512146 
	C327.235046,226.878571 332.382965,228.549667 335.846985,232.673416 
	C341.327850,239.198059 343.331879,239.434647 350.415894,234.723175 
	C354.426819,232.055511 358.444946,229.354843 362.687836,227.097595 
	C364.938416,225.900269 367.675903,225.618195 370.597412,225.424561 
	C371.403625,234.132339 366.499603,239.111603 360.368103,243.301193 
	C354.475922,247.327255 348.284973,250.961731 342.672272,255.341110 
	C332.686218,263.132874 327.326080,273.394806 327.496460,286.336517 
	C327.745911,305.283630 327.793640,324.233368 328.034332,343.180634 
	C328.135803,351.169128 328.405853,359.140289 324.894897,366.627258 
z"/>
<path fill="#BF63AB" opacity="1.000000" stroke="none" 
	d="
M325.228088,366.745483 
	C328.405853,359.140289 328.135803,351.169128 328.034332,343.180634 
	C327.793640,324.233368 327.745911,305.283630 327.496460,286.336517 
	C327.326080,273.394806 332.686218,263.132874 342.672272,255.341110 
	C348.284973,250.961731 354.475922,247.327255 360.368103,243.301193 
	C366.499603,239.111603 371.403625,234.132339 370.996277,225.511169 
	C376.735138,225.330627 380.172699,228.628998 381.837097,233.779999 
	C383.493561,238.906601 381.596100,244.231628 377.058594,247.432251 
	C373.533508,249.918716 369.618835,251.860504 366.141968,254.405884 
	C361.325470,257.932037 356.508545,261.528259 352.133453,265.572266 
	C342.554535,274.426453 337.504059,284.780487 338.387848,298.640167 
	C339.528900,316.533447 338.735535,334.555115 338.629913,352.520660 
	C338.576660,361.583374 334.349701,366.052246 325.228088,366.745483 
z"/>
<path fill="#020102" opacity="1.000000" stroke="none" 
	d="
M239.047363,228.952087 
	C230.718063,247.594971 216.521957,256.752380 196.559402,256.985840 
	C186.404800,257.104614 176.248047,257.094238 166.092529,257.062347 
	C159.612579,257.041992 156.987122,254.454468 156.961594,248.013840 
	C156.873779,225.870758 156.823563,203.727463 156.812119,181.584213 
	C156.808609,174.777267 159.372787,172.084457 166.092651,172.156570 
	C179.228287,172.297516 192.507187,171.495117 205.465637,173.140274 
	C231.855225,176.490585 247.752960,203.468567 239.047363,228.952087 
M171.873413,203.502441 
	C171.873413,216.225525 171.873413,228.948593 171.873413,241.988358 
	C181.164093,241.988358 189.465561,242.066635 197.765030,241.971619 
	C213.696304,241.789261 226.644592,229.685654 226.817368,214.923904 
	C226.991791,200.022583 214.025146,187.490128 197.933228,187.154831 
	C190.783234,187.005859 183.619812,187.324081 176.477722,187.042908 
	C172.552994,186.888412 171.565903,188.486115 171.806976,192.027756 
	C172.043686,195.505310 171.866882,199.011017 171.873413,203.502441 
z"/>
<path fill="#712D64" opacity="1.000000" stroke="none" 
	d="
M171.872482,203.003403 
	C171.866882,199.011017 172.043686,195.505310 171.806976,192.027756 
	C171.565903,188.486115 172.552994,186.888412 176.477722,187.042908 
	C183.619812,187.324081 190.783234,187.005859 197.933228,187.154831 
	C214.025146,187.490128 226.991791,200.022583 226.817368,214.923904 
	C226.644592,229.685654 213.696304,241.789261 197.765030,241.971619 
	C189.465561,242.066635 181.164093,241.988358 171.873413,241.988358 
	C171.873413,228.948593 171.873413,216.225525 171.872482,203.003403 
z"/>
</svg>