<?xml version="1.0" encoding="utf-8"?>
<!-- Generator: Adobe Illustrator 28.1.0, SVG Export Plug-In . SVG Version: 6.00 Build 0)  -->
<svg version="1.1" id="Layer_1" xmlns="http://www.w3.org/2000/svg" xmlns:xlink="http://www.w3.org/1999/xlink" x="0px" y="0px"
	 viewBox="0 0 517 512" style="enable-background:new 0 0 517 512;" xml:space="preserve">
<style type="text/css">
	.st0{fill:#05CDFF;}
	.st1{fill:#0585BD;}
	.st2{fill:#1E2E65;}
	.st3{fill:#1F2E65;}
</style>
<path class="st0" d="M244,513c-1.4,0-2.8,0-4.8-0.4c-8.6-1.4-16.5-2.4-24.5-3.6c-23.4-3.4-45.5-11.2-66.7-21.5
	c-19.8-9.6-38-21.7-54.5-36.3c-15.9-14-30.3-29.4-42.6-46.7c-12.7-17.9-23-37.2-30.6-57.8C13.9,328.8,9,310.4,7,291.3
	c-0.4-4.1-1.3-8.2-2-12.3c0-14.4,0-28.7,0.4-43.7c1.4-8.6,2.4-16.6,3.6-24.5c3.4-23.4,11.2-45.5,21.5-66.7
	c9.6-19.8,21.7-38,36.3-54.5c14-15.9,29.4-30.3,46.7-42.6c17.9-12.7,37.2-23,57.8-30.6C189.2,9.9,207.6,5,226.7,3
	c4.1-0.4,8.2-1.3,12.3-2c14.4,0,28.7,0,43.7,0.4c8.6,1.4,16.6,2.4,24.5,3.6c23.4,3.4,45.5,11.2,66.7,21.5
	c19.8,9.6,38,21.7,54.5,36.3c15.9,14,30.3,29.4,42.6,46.7c12.7,17.9,23,37.2,30.6,57.8c6.6,17.9,11.5,36.3,13.5,55.4
	c0.4,4.1,1.3,8.2,2,12.3c0,1.4,0,2.8-0.3,4.6c-2-1-3.7-2.3-5.2-3.8c-30-30-60-59.9-89.9-89.9c-1.4-1.4-3-2.6-4.7-4.3
	c-2.3-0.5-4.2-0.8-6.2-0.8c-26.8,0-53.6,0-80.5,0c-2.7,0-5.3-0.2-8-0.7c-7.6-8-15-15.7-22.6-23.2c-2.5-2.5-5.4-4.7-8.2-7.4
	c-2.3-0.3-4.6-0.6-6.7-0.2c-58.3,10.2-116.6,20.5-175,30.7c-3.4,0.6-4.3,2-4.3,5.2c0.1,74.7,0,149.3,0.1,224c0,1.6,1.1,3.2,1.8,5.1
	c1.5,1.8,2.8,3.3,4.2,4.7c42.9,42.9,85.7,85.7,128.5,128.6C241.5,509.2,242.7,511.2,244,513z"/>
<path class="st1" d="M417,142c1.5,1.3,3.1,2.5,4.5,3.9c30,30,60,59.9,89.9,89.9c1.5,1.5,3.3,2.8,5.2,4.2c0.3,12.7,0.3,25.4,0,38.7
	c-1.5,8.6-2.4,16.6-3.6,24.5c-3.4,23.4-11.2,45.4-21.5,66.6c-9.7,19.9-21.7,38.2-36.5,54.8c-11.6,13-23.9,25.1-37.6,35.7
	c-16.3,12.6-33.8,23.2-52.7,31.5c-22.2,9.7-45.2,16.4-69.3,19.3c-4.4,0.5-8.9,1.3-13.3,2c-12.4,0-24.7,0-37.5,0
	c-1.8-1.8-3-3.8-4.5-5.4c-42.8-42.9-85.7-85.8-128.5-128.6c-1.4-1.4-2.7-2.9-3.8-4.7c1.5-0.3,2.7-0.3,3.8-0.1
	c52.1,9.2,104.2,18.4,156.3,27.5c7.5,1.3,15,2.5,23.3,3.9c0-3.2,0-5.5,0-7.8c0-93.7,0-187.3,0-281c0-2.3,0.3-4.6,0.4-7
	c2.7,2.4,5.5,4.6,8.1,7.1c7.6,7.6,15,15.3,22.1,23.4c-6,0.5-11.6,0.7-17.3,0.6c-3.1-0.1-4.5,0.8-4.4,4.2c0.2,7.4,0.2,14.9,0.2,22.8
	c0,7.7,0,15,0,22.7c0,5.7,0,10.9,0,16.6c0,7.6,0,14.8,0,22.4c0,5.7,0,11,0,16.7c0,7.6,0,14.8,0,22.4c0,5.7,0,11,0,16.7
	c0,7.6,0,14.8,0,22.4c0,5.7,0,11,0,16.7c0,7.7,0,14.9,0,22.7c-0.1,7,0.2,13.5-0.2,20c-0.3,4.9,1.3,6.1,6.1,6.1
	c34.6-0.2,69.3-0.1,103.9-0.1c6.8,0,6.8,0,6.8-6.8c0-72.6,0-145.2,0-217.9C416.8,146.3,416.9,144.1,417,142z"/>
<path class="st2" d="M291.3,109.5c0,2.6-0.2,5-0.2,7.3c0,93.7,0,187.3,0,281c0,2.3,0,4.6,0,7.8c-8.3-1.4-15.8-2.5-23.3-3.9
	c-52.1-9.2-104.2-18.4-156.3-27.5c-1.1-0.2-2.3-0.2-3.9-0.2c-1-1.6-2.1-3.2-2.1-4.8c-0.1-74.7-0.1-149.3-0.1-224
	c0-3.2,0.9-4.6,4.3-5.2c58.3-10.2,116.7-20.5,175-30.7C286.6,108.9,288.9,109.2,291.3,109.5 M204,262.6c3,12.1,5.9,24.2,8.9,36.3
	c3.1,0,5.8-0.3,8.4,0.1c4,0.5,5.7-1,6.9-4.9c3.9-12.7,8.3-25.2,12.5-37.9c4.5-13.5,8.9-27.1,13.5-41.1c-4.8,0-9.1,0.2-13.4-0.1
	c-3.3-0.2-4.6,0.9-5.4,4.1c-4,16.3-8.3,32.5-12.5,48.8c-0.2,0.9-0.8,1.8-1.5,3.2c-4.8-19-9.3-37.2-14-55.8c-3.2,0-6.1,0-9.1,0
	c-7.6,0-7.6,0-9.6,7.6c-4.4,16.2-8.8,32.5-13.2,48.7c-0.3,0-0.6,0-0.9,0c-4-18.8-7.9-37.5-11.9-56.3c-5.8,0-11.3,0-17.4,0
	c8.4,28.1,16.6,55.9,24.8,83.4c5,0,9.3,0,13.7,0c4.7-19.2,9.4-38.3,14.1-57.3c0.3,0,0.6,0.1,0.8,0.1
	C200.5,248.2,202.2,255,204,262.6z"/>
<path class="st3" d="M300.1,284.9c0-5.3,0-10.5,0.4-16.2c33.5-0.4,66.6-0.4,99.7-0.4c0-7.8,0-15,0-22.4c-33.6,0-66.9,0-100.1,0
	c0-5.3,0-10.5,0.4-16.3c33.5-0.5,66.6-0.5,99.7-0.5c0-7.7,0-14.9,0-22.4c-33.6,0-66.9,0-100.1,0c0-5.2,0-10.5,0.4-16.2
	c33.6-0.5,66.6-0.5,99.8-0.5c0-7.8,0-15,0-22.7c-33.6,0-66.9,0-100.2,0c-0.1-7.4,0-14.9-0.2-22.3c-0.1-3.4,1.3-4.2,4.4-4.2
	c5.6,0.1,11.2-0.1,17.3-0.3c3.1,0,5.8,0.2,8.4,0.2c26.8,0,53.6,0,80.5,0c2,0,3.9,0.3,6.2,0.8c0.2,2.5,0,4.6,0,6.8
	c0,72.6,0,145.2,0,217.9c0,6.8,0,6.8-6.8,6.8c-34.6,0-69.3-0.1-103.9,0.1c-4.8,0-6.4-1.2-6.1-6.1c0.4-6.5,0.1-13,0.7-20
	c33.6-0.5,66.6-0.5,99.8-0.5c0-8,0-15.2,0-22.7c-33.6,0-66.9,0-100.2,0c0-5.3,0-10.5,0.4-16.2c33.5-0.4,66.6-0.4,99.7-0.4
	c0-7.8,0-15,0-22.4C366.7,284.9,333.4,284.9,300.1,284.9z"/>
</svg>
